<svg width="87" height="80" viewBox="0 0 87 80" fill="none" xmlns="http://www.w3.org/2000/svg">
<path d="M87 40C87 17.912 67.5207 0 43.5 0C19.4793 0 0 17.912 0 40C0 62.088 19.4793 80 43.5 80C43.7555 80 44.0098 79.9951 44.2646 79.9908V48.8525H34.9189V38.8373H44.2646V31.4673C44.2646 22.9199 49.9391 18.2678 58.2308 18.2678C62.2014 18.2678 65.6144 18.54 66.6094 18.6615V27.5946H60.8918C56.3809 27.5946 55.5074 29.566 55.5074 32.4585V38.8373H66.2934L64.8876 48.8525H55.5074V78.4546C73.6897 73.6615 87 58.2581 87 40Z" fill="#123678"/>
</svg>
