<svg width="188" height="188" viewBox="0 0 188 188" fill="none" xmlns="http://www.w3.org/2000/svg">
<path d="M174.839 84.9536L169.971 65.4798C171.302 65.1971 172.301 64.0162 172.301 62.6014V59.4616C172.301 52.6444 166.754 47.0984 159.937 47.0984H137.762V40.622C137.762 37.2673 135.033 34.5384 131.679 34.5384H18.6428C15.2882 34.5384 12.5593 37.2673 12.5593 40.622V94C12.5593 95.6255 13.8771 96.9437 15.503 96.9437C17.1286 96.9437 18.4468 95.6259 18.4468 94V40.622C18.4468 40.5136 18.5345 40.4259 18.6428 40.4259H131.678C131.787 40.4259 131.874 40.5136 131.874 40.622V94.0007C131.874 95.6263 133.192 96.9445 134.818 96.9445C136.444 96.9445 137.762 95.6267 137.762 94.0007V90.6637H172.486C172.489 90.6637 172.491 90.6645 172.494 90.6645C172.497 90.6645 172.5 90.6641 172.502 90.6641C176.775 90.667 180.403 93.4716 181.649 97.3363H172.496C170.871 97.3363 169.553 98.6541 169.553 100.28V106.56C169.553 111.646 173.69 115.783 178.776 115.783H182.112V128.735H174.415C171.887 121.434 164.947 116.175 156.797 116.175C148.647 116.175 141.706 121.434 139.178 128.735H137.761V106.559C137.761 104.934 136.443 103.616 134.817 103.616C133.192 103.616 131.874 104.933 131.874 106.559V128.734H70.8C68.2715 121.433 61.3313 116.174 53.1816 116.174C45.0319 116.174 38.0913 121.433 35.5632 128.734H18.6428C18.5345 128.734 18.4468 128.646 18.4468 128.538V122.062H31.2025C32.828 122.062 34.1462 120.744 34.1462 119.118C34.1462 117.492 32.8284 116.174 31.2025 116.174H2.94374C1.3182 116.174 0 117.492 0 119.118C0 120.744 1.31784 122.062 2.94374 122.062H12.5596V128.538C12.5596 131.893 15.2886 134.622 18.6432 134.622H34.5439C34.5432 134.687 34.5388 134.752 34.5388 134.818C34.5388 145.097 42.9022 153.461 53.1816 153.461C63.461 153.461 71.8244 145.097 71.8244 134.818C71.8244 134.752 71.82 134.687 71.8193 134.622H138.159C138.158 134.687 138.154 134.752 138.154 134.818C138.154 145.097 146.517 153.461 156.797 153.461C167.076 153.461 175.44 145.097 175.44 134.818C175.44 134.752 175.435 134.687 175.434 134.622H185.056C186.681 134.622 188 133.304 188 131.678V100.279C188 92.5272 182.28 86.0864 174.839 84.9536ZM137.762 52.9855H159.937C163.508 52.9855 166.413 55.8907 166.413 59.4616V59.6577H137.762V52.9855ZM137.762 84.7766V65.5448H163.919L168.727 84.7766H137.762ZM53.1816 147.574C46.1481 147.574 40.4259 141.852 40.4259 134.818C40.4259 127.785 46.1481 122.063 53.1816 122.063C60.2151 122.063 65.9373 127.785 65.9373 134.818C65.9373 141.852 60.2151 147.574 53.1816 147.574ZM156.798 147.574C149.764 147.574 144.042 141.852 144.042 134.818C144.042 127.785 149.764 122.063 156.798 122.063C163.831 122.063 169.553 127.785 169.553 134.818C169.553 141.852 163.831 147.574 156.798 147.574ZM182.113 109.896H178.777C176.937 109.896 175.44 108.399 175.44 106.559V103.223H182.113V109.896H182.113Z" fill="url(#paint0_linear)"/>
<path d="M53.1816 128.735C49.827 128.735 47.0981 131.464 47.0981 134.818C47.0981 138.173 49.827 140.902 53.1816 140.902C56.5362 140.902 59.2652 138.173 59.2652 134.818C59.2652 131.464 56.5362 128.735 53.1816 128.735Z" fill="url(#paint1_linear)"/>
<path d="M156.797 128.735C153.443 128.735 150.714 131.464 150.714 134.818C150.714 138.173 153.443 140.902 156.797 140.902C160.152 140.902 162.881 138.173 162.881 134.818C162.881 131.464 160.152 128.735 156.797 128.735Z" fill="url(#paint2_linear)"/>
<path d="M122.259 116.176H78.3006C76.675 116.176 75.3568 117.493 75.3568 119.119C75.3568 120.745 76.6746 122.063 78.3006 122.063H122.259C123.884 122.063 125.202 120.745 125.202 119.119C125.202 117.493 123.885 116.176 122.259 116.176Z" fill="url(#paint3_linear)"/>
<path d="M46.9019 103.616H9.22337C7.59784 103.616 6.27963 104.934 6.27963 106.56C6.27963 108.186 7.59747 109.503 9.22337 109.503H46.9019C48.5275 109.503 49.8457 108.186 49.8457 106.56C49.8457 104.934 48.5275 103.616 46.9019 103.616Z" fill="url(#paint4_linear)"/>
<path d="M102.361 63.6593C101.212 62.51 99.3477 62.51 98.1984 63.6597L72.0209 89.8368L58.403 76.2189C57.2533 75.0693 55.3895 75.0693 54.2402 76.2189C53.0905 77.3686 53.0905 79.2321 54.2402 80.3817L69.9397 96.0812C70.5143 96.6562 71.2678 96.9434 72.0209 96.9434C72.774 96.9434 73.5278 96.6562 74.1021 96.0812L102.361 67.8225C103.511 66.6724 103.511 64.809 102.361 63.6593Z" fill="url(#paint5_linear)"/>
<defs>
<linearGradient id="paint0_linear" x1="93.9998" y1="34.5384" x2="93.9998" y2="153.461" gradientUnits="userSpaceOnUse">
<stop stop-color="#B1830D"/>
<stop offset="1" stop-color="#F0CA68"/>
</linearGradient>
<linearGradient id="paint1_linear" x1="53.1816" y1="128.735" x2="53.1816" y2="140.902" gradientUnits="userSpaceOnUse">
<stop stop-color="#B1830D"/>
<stop offset="1" stop-color="#F0CA68"/>
</linearGradient>
<linearGradient id="paint2_linear" x1="156.797" y1="128.735" x2="156.797" y2="140.902" gradientUnits="userSpaceOnUse">
<stop stop-color="#B1830D"/>
<stop offset="1" stop-color="#F0CA68"/>
</linearGradient>
<linearGradient id="paint3_linear" x1="100.28" y1="116.176" x2="100.28" y2="122.063" gradientUnits="userSpaceOnUse">
<stop stop-color="#B1830D"/>
<stop offset="1" stop-color="#F0CA68"/>
</linearGradient>
<linearGradient id="paint4_linear" x1="28.0627" y1="103.616" x2="28.0627" y2="109.503" gradientUnits="userSpaceOnUse">
<stop stop-color="#B1830D"/>
<stop offset="1" stop-color="#F0CA68"/>
</linearGradient>
<linearGradient id="paint5_linear" x1="78.3006" y1="62.7974" x2="78.3006" y2="96.9434" gradientUnits="userSpaceOnUse">
<stop stop-color="#B1830D"/>
<stop offset="1" stop-color="#F0CA68"/>
</linearGradient>
</defs>
</svg>
