<svg width="188" height="188" viewBox="0 0 188 188" fill="none" xmlns="http://www.w3.org/2000/svg">
<path d="M29.375 167.438H23.5C22.7209 167.438 21.9738 167.747 21.4229 168.298C20.872 168.849 20.5625 169.596 20.5625 170.375C20.5625 171.154 20.872 171.901 21.4229 172.452C21.9738 173.003 22.7209 173.312 23.5 173.312H29.375C30.1541 173.312 30.9012 173.003 31.4521 172.452C32.003 171.901 32.3125 171.154 32.3125 170.375C32.3125 169.596 32.003 168.849 31.4521 168.298C30.9012 167.747 30.1541 167.438 29.375 167.438Z" fill="url(#paint0_linear)"/>
<path d="M29.375 158.625H23.5C22.7209 158.625 21.9738 158.934 21.4229 159.485C20.872 160.036 20.5625 160.783 20.5625 161.562C20.5625 162.342 20.872 163.089 21.4229 163.64C21.9738 164.191 22.7209 164.5 23.5 164.5H29.375C30.1541 164.5 30.9012 164.191 31.4521 163.64C32.003 163.089 32.3125 162.342 32.3125 161.562C32.3125 160.783 32.003 160.036 31.4521 159.485C30.9012 158.934 30.1541 158.625 29.375 158.625Z" fill="url(#paint1_linear)"/>
<path d="M82.25 167.438H76.375C75.5959 167.438 74.8488 167.747 74.2979 168.298C73.747 168.849 73.4375 169.596 73.4375 170.375C73.4375 171.154 73.747 171.901 74.2979 172.452C74.8488 173.003 75.5959 173.312 76.375 173.312H82.25C83.0291 173.312 83.7762 173.003 84.3271 172.452C84.878 171.901 85.1875 171.154 85.1875 170.375C85.1875 169.596 84.878 168.849 84.3271 168.298C83.7762 167.747 83.0291 167.438 82.25 167.438Z" fill="url(#paint2_linear)"/>
<path d="M82.25 158.625H76.375C75.5959 158.625 74.8488 158.934 74.2979 159.485C73.747 160.036 73.4375 160.783 73.4375 161.562C73.4375 162.342 73.747 163.089 74.2979 163.64C74.8488 164.191 75.5959 164.5 76.375 164.5H82.25C83.0291 164.5 83.7762 164.191 84.3271 163.64C84.878 163.089 85.1875 162.342 85.1875 161.562C85.1875 160.783 84.878 160.036 84.3271 159.485C83.7762 158.934 83.0291 158.625 82.25 158.625Z" fill="url(#paint3_linear)"/>
<path d="M135.125 167.438H129.25C128.471 167.438 127.724 167.747 127.173 168.298C126.622 168.849 126.312 169.596 126.312 170.375C126.312 171.154 126.622 171.901 127.173 172.452C127.724 173.003 128.471 173.312 129.25 173.312H135.125C135.904 173.312 136.651 173.003 137.202 172.452C137.753 171.901 138.062 171.154 138.062 170.375C138.062 169.596 137.753 168.849 137.202 168.298C136.651 167.747 135.904 167.438 135.125 167.438Z" fill="url(#paint4_linear)"/>
<path d="M135.125 158.625H129.25C128.471 158.625 127.724 158.934 127.173 159.485C126.622 160.036 126.312 160.783 126.312 161.562C126.312 162.342 126.622 163.089 127.173 163.64C127.724 164.191 128.471 164.5 129.25 164.5H135.125C135.904 164.5 136.651 164.191 137.202 163.64C137.753 163.089 138.062 162.342 138.062 161.562C138.062 160.783 137.753 160.036 137.202 159.485C136.651 158.934 135.904 158.625 135.125 158.625Z" fill="url(#paint5_linear)"/>
<path d="M173.312 117.5H149.812V61.6875C149.812 60.9084 149.503 60.1613 148.952 59.6104C148.401 59.0595 147.654 58.75 146.875 58.75H123.375V8.8125C123.375 8.03343 123.066 7.28626 122.515 6.73537C121.964 6.18449 121.217 5.875 120.438 5.875H67.5625C66.7834 5.875 66.0363 6.18449 65.4854 6.73537C64.9345 7.28626 64.625 8.03343 64.625 8.8125V58.75H41.125C40.3459 58.75 39.5988 59.0595 39.0479 59.6104C38.497 60.1613 38.1875 60.9084 38.1875 61.6875V117.5H14.6875C13.9084 117.5 13.1613 117.809 12.6104 118.36C12.0595 118.911 11.75 119.658 11.75 120.438V179.188C11.75 179.967 12.0595 180.714 12.6104 181.265C13.1613 181.816 13.9084 182.125 14.6875 182.125H173.312C174.092 182.125 174.839 181.816 175.39 181.265C175.941 180.714 176.25 179.967 176.25 179.188V120.438C176.25 119.658 175.941 118.911 175.39 118.36C174.839 117.809 174.092 117.5 173.312 117.5ZM143.938 123.375H149.812V135.125H143.938V123.375ZM143.938 117.5H96.9375V64.625H111.625V79.3125C111.625 80.0916 111.934 80.8387 112.485 81.3896C113.036 81.9405 113.783 82.25 114.562 82.25H126.312C127.092 82.25 127.839 81.9405 128.39 81.3896C128.941 80.8387 129.25 80.0916 129.25 79.3125V64.625H143.938V117.5ZM91.0625 123.375H96.9375V135.125H91.0625V123.375ZM123.375 64.625V76.375H117.5V64.625H123.375ZM96.9375 11.75V17.625H91.0625V11.75H96.9375ZM70.5 11.75H85.1875V20.5625C85.1875 21.3416 85.497 22.0887 86.0479 22.6396C86.5988 23.1905 87.3459 23.5 88.125 23.5H99.875C100.654 23.5 101.401 23.1905 101.952 22.6396C102.503 22.0887 102.812 21.3416 102.812 20.5625V11.75H117.5V58.75H70.5V11.75ZM70.5 64.625V76.375H64.625V64.625H70.5ZM44.0625 64.625H58.75V79.3125C58.75 80.0916 59.0595 80.8387 59.6104 81.3896C60.1613 81.9405 60.9084 82.25 61.6875 82.25H73.4375C74.2166 82.25 74.9637 81.9405 75.5146 81.3896C76.0655 80.8387 76.375 80.0916 76.375 79.3125V64.625H91.0625V117.5H44.0625V64.625ZM44.0625 123.375V135.125H38.1875V123.375H44.0625ZM17.625 123.375H32.3125V138.062C32.3125 138.842 32.622 139.589 33.1729 140.14C33.7238 140.691 34.4709 141 35.25 141H47C47.7791 141 48.5262 140.691 49.0771 140.14C49.628 139.589 49.9375 138.842 49.9375 138.062V123.375H64.625V176.25H17.625V123.375ZM70.5 123.375H85.1875V138.062C85.1875 138.842 85.497 139.589 86.0479 140.14C86.5988 140.691 87.3459 141 88.125 141H99.875C100.654 141 101.401 140.691 101.952 140.14C102.503 139.589 102.812 138.842 102.812 138.062V123.375H117.5V176.25H70.5V123.375ZM170.375 176.25H123.375V123.375H138.062V138.062C138.062 138.842 138.372 139.589 138.923 140.14C139.474 140.691 140.221 141 141 141H152.75C153.529 141 154.276 140.691 154.827 140.14C155.378 139.589 155.688 138.842 155.688 138.062V123.375H170.375V176.25Z" fill="url(#paint6_linear)"/>
<path d="M49.9375 114.562H55.8125C56.5916 114.562 57.3387 114.253 57.8896 113.702C58.4405 113.151 58.75 112.404 58.75 111.625C58.75 110.846 58.4405 110.099 57.8896 109.548C57.3387 108.997 56.5916 108.688 55.8125 108.688H49.9375C49.1584 108.688 48.4113 108.997 47.8604 109.548C47.3095 110.099 47 110.846 47 111.625C47 112.404 47.3095 113.151 47.8604 113.702C48.4113 114.253 49.1584 114.562 49.9375 114.562Z" fill="url(#paint7_linear)"/>
<path d="M49.9375 105.75H55.8125C56.5916 105.75 57.3387 105.441 57.8896 104.89C58.4405 104.339 58.75 103.592 58.75 102.812C58.75 102.033 58.4405 101.286 57.8896 100.735C57.3387 100.184 56.5916 99.875 55.8125 99.875H49.9375C49.1584 99.875 48.4113 100.184 47.8604 100.735C47.3095 101.286 47 102.033 47 102.812C47 103.592 47.3095 104.339 47.8604 104.89C48.4113 105.441 49.1584 105.75 49.9375 105.75Z" fill="url(#paint8_linear)"/>
<path d="M108.688 108.688H102.812C102.033 108.688 101.286 108.997 100.735 109.548C100.184 110.099 99.875 110.846 99.875 111.625C99.875 112.404 100.184 113.151 100.735 113.702C101.286 114.253 102.033 114.562 102.812 114.562H108.688C109.467 114.562 110.214 114.253 110.765 113.702C111.316 113.151 111.625 112.404 111.625 111.625C111.625 110.846 111.316 110.099 110.765 109.548C110.214 108.997 109.467 108.688 108.688 108.688Z" fill="url(#paint9_linear)"/>
<path d="M108.688 99.875H102.812C102.033 99.875 101.286 100.184 100.735 100.735C100.184 101.286 99.875 102.033 99.875 102.812C99.875 103.592 100.184 104.339 100.735 104.89C101.286 105.441 102.033 105.75 102.812 105.75H108.688C109.467 105.75 110.214 105.441 110.765 104.89C111.316 104.339 111.625 103.592 111.625 102.812C111.625 102.033 111.316 101.286 110.765 100.735C110.214 100.184 109.467 99.875 108.688 99.875Z" fill="url(#paint10_linear)"/>
<path d="M76.375 47H82.25C83.0291 47 83.7762 46.6905 84.3271 46.1396C84.878 45.5887 85.1875 44.8416 85.1875 44.0625C85.1875 43.2834 84.878 42.5363 84.3271 41.9854C83.7762 41.4345 83.0291 41.125 82.25 41.125H76.375C75.5959 41.125 74.8488 41.4345 74.2979 41.9854C73.747 42.5363 73.4375 43.2834 73.4375 44.0625C73.4375 44.8416 73.747 45.5887 74.2979 46.1396C74.8488 46.6905 75.5959 47 76.375 47Z" fill="url(#paint11_linear)"/>
<path d="M76.375 55.8125H82.25C83.0291 55.8125 83.7762 55.503 84.3271 54.9521C84.878 54.4012 85.1875 53.6541 85.1875 52.875C85.1875 52.0959 84.878 51.3488 84.3271 50.7979C83.7762 50.247 83.0291 49.9375 82.25 49.9375H76.375C75.5959 49.9375 74.8488 50.247 74.2979 50.7979C73.747 51.3488 73.4375 52.0959 73.4375 52.875C73.4375 53.6541 73.747 54.4012 74.2979 54.9521C74.8488 55.503 75.5959 55.8125 76.375 55.8125Z" fill="url(#paint12_linear)"/>
<defs>
<linearGradient id="paint0_linear" x1="26.4375" y1="167.438" x2="26.4375" y2="173.312" gradientUnits="userSpaceOnUse">
<stop stop-color="#B38510"/>
<stop offset="1" stop-color="#E3BA54"/>
</linearGradient>
<linearGradient id="paint1_linear" x1="26.4375" y1="158.625" x2="26.4375" y2="164.5" gradientUnits="userSpaceOnUse">
<stop stop-color="#B38510"/>
<stop offset="1" stop-color="#E3BA54"/>
</linearGradient>
<linearGradient id="paint2_linear" x1="79.3125" y1="167.438" x2="79.3125" y2="173.312" gradientUnits="userSpaceOnUse">
<stop stop-color="#B38510"/>
<stop offset="1" stop-color="#E3BA54"/>
</linearGradient>
<linearGradient id="paint3_linear" x1="79.3125" y1="158.625" x2="79.3125" y2="164.5" gradientUnits="userSpaceOnUse">
<stop stop-color="#B38510"/>
<stop offset="1" stop-color="#E3BA54"/>
</linearGradient>
<linearGradient id="paint4_linear" x1="132.188" y1="167.438" x2="132.188" y2="173.312" gradientUnits="userSpaceOnUse">
<stop stop-color="#B38510"/>
<stop offset="1" stop-color="#E3BA54"/>
</linearGradient>
<linearGradient id="paint5_linear" x1="132.188" y1="158.625" x2="132.188" y2="164.5" gradientUnits="userSpaceOnUse">
<stop stop-color="#B38510"/>
<stop offset="1" stop-color="#E3BA54"/>
</linearGradient>
<linearGradient id="paint6_linear" x1="94" y1="5.875" x2="94" y2="182.125" gradientUnits="userSpaceOnUse">
<stop stop-color="#B38510"/>
<stop offset="1" stop-color="#E3BA54"/>
</linearGradient>
<linearGradient id="paint7_linear" x1="52.875" y1="108.688" x2="52.875" y2="114.562" gradientUnits="userSpaceOnUse">
<stop stop-color="#B38510"/>
<stop offset="1" stop-color="#E3BA54"/>
</linearGradient>
<linearGradient id="paint8_linear" x1="52.875" y1="99.875" x2="52.875" y2="105.75" gradientUnits="userSpaceOnUse">
<stop stop-color="#B38510"/>
<stop offset="1" stop-color="#E3BA54"/>
</linearGradient>
<linearGradient id="paint9_linear" x1="105.75" y1="108.688" x2="105.75" y2="114.562" gradientUnits="userSpaceOnUse">
<stop stop-color="#B38510"/>
<stop offset="1" stop-color="#E3BA54"/>
</linearGradient>
<linearGradient id="paint10_linear" x1="105.75" y1="99.875" x2="105.75" y2="105.75" gradientUnits="userSpaceOnUse">
<stop stop-color="#B38510"/>
<stop offset="1" stop-color="#E3BA54"/>
</linearGradient>
<linearGradient id="paint11_linear" x1="79.3125" y1="41.125" x2="79.3125" y2="47" gradientUnits="userSpaceOnUse">
<stop stop-color="#B38510"/>
<stop offset="1" stop-color="#E3BA54"/>
</linearGradient>
<linearGradient id="paint12_linear" x1="79.3125" y1="49.9375" x2="79.3125" y2="55.8125" gradientUnits="userSpaceOnUse">
<stop stop-color="#B38510"/>
<stop offset="1" stop-color="#E3BA54"/>
</linearGradient>
</defs>
</svg>
