<svg width="75" height="75" viewBox="0 0 75 75" fill="none" xmlns="http://www.w3.org/2000/svg">
<path d="M75 37.5C75 16.7925 58.2075 0 37.5 0C16.7925 0 0 16.7925 0 37.5C0 58.2075 16.7925 75 37.5 75C37.7203 75 37.9395 74.9954 38.1592 74.9914V45.7993H30.1025V36.41H38.1592V29.5006C38.1592 21.4874 43.051 17.1261 50.1989 17.1261C53.6219 17.1261 56.5641 17.3813 57.4219 17.4952V25.8699H52.4929C48.6042 25.8699 47.8512 27.7182 47.8512 30.4298V36.41H57.1495L55.9376 45.7993H47.8512V73.5512C63.5256 69.0577 75 54.6169 75 37.5Z" fill="white"/>
</svg>
