<svg width="86" height="86" viewBox="0 0 86 86" fill="none" xmlns="http://www.w3.org/2000/svg">
<g clip-path="url(#clip0)">
<path d="M21.9867 7.1805L20.1285 5.32718C27.2247 -1.77148 38.7748 -1.77394 45.871 5.32472L44.0127 7.18542C37.9391 1.11173 28.058 1.11173 21.9867 7.1805ZM42.6584 8.53977C37.3295 3.21577 28.6651 3.21577 23.3411 8.54222L25.2018 10.398C29.4983 6.09653 36.5011 6.09653 40.8026 10.3955L42.6584 8.53977ZM28.5225 13.7163C30.9903 11.2436 35.0141 11.2436 37.4843 13.7163L39.3426 11.8556C35.8473 8.35788 30.1595 8.35788 26.6594 11.858L28.5225 13.7163ZM50.7402 38.1413L50.1503 38.7312C48.8353 40.0462 48.8353 42.1773 50.1553 43.4923L50.4133 43.7504C51.7284 45.0679 53.8521 45.0679 55.172 43.7529L59.621 39.3088L60.2035 38.7214C61.5185 37.4064 61.5185 35.2728 60.2035 33.9578L59.9405 33.6972C58.6328 32.3822 56.5018 32.3822 55.1794 33.6972L50.7402 38.1413ZM60.5329 40.2281L56.0864 44.6746C54.7787 45.9847 54.7787 48.1183 56.0864 49.4333L56.342 49.6938C57.657 51.0064 59.7856 51.0064 61.1031 49.6938L61.693 49.1014L65.5447 45.2547L66.1272 44.6648C67.4472 43.3498 67.4423 41.2236 66.1322 39.9012L65.8741 39.6431C64.5615 38.3306 62.4353 38.3232 61.113 39.6407L60.5329 40.2281ZM75.2095 61.8387L55.349 81.7017C53.6923 83.3584 50.9811 83.3584 49.3294 81.7042L45.9103 78.2827L42.2922 81.8959C42.2922 81.8959 36.9067 87.2445 29.6089 85.7328C29.5524 85.7205 29.4934 85.7131 29.4393 85.7009C29.1223 85.632 28.7978 85.5386 28.4758 85.4428C28.2128 85.3641 27.9375 85.2707 27.6696 85.1724C27.4066 85.0741 27.1411 84.9856 26.8732 84.8651C26.3349 84.6316 25.7966 84.3662 25.2485 84.0466C25.0887 83.9508 24.9191 83.8328 24.7544 83.7295C24.2948 83.4469 23.8327 83.1249 23.3681 82.7709C23.1887 82.6333 23.0068 82.4956 22.82 82.3457C22.2006 81.8467 21.5787 81.3084 20.9519 80.6792C13.9196 73.6469 14.2269 67.3815 15.5419 64.2181C15.5468 64.2082 16.6185 60.2607 17.9188 55.5561C18.285 54.219 18.6758 52.8278 19.0568 51.4341L10.7906 43.1654C9.13393 41.5112 9.13393 38.8025 10.7906 37.1433L30.6511 17.2853C32.3078 15.6286 35.019 15.6286 36.6707 17.2853L48.1938 28.8034L49.2409 27.7538C50.5559 26.4388 52.687 26.4437 54.0045 27.7538L54.2625 28.0168C55.5776 29.3294 55.5776 31.458 54.2625 32.7755L53.6751 33.3679L49.8283 37.2171L49.2335 37.807C47.9259 39.1171 45.8022 39.1245 44.4773 37.807L44.2217 37.5514C42.9091 36.2339 42.9091 34.1028 44.2217 32.7878L44.8067 32.1979V32.1954L46.1045 30.8976L36.3463 21.1419L14.6472 42.8336L19.9761 48.1576C20.8831 44.913 21.6942 42.0839 22.1219 40.7369C23.4714 36.4625 26.8781 36.6198 28.4979 39.2203C29.7589 41.2236 28.7806 45.7881 28.1268 50.9548C27.9965 51.9748 27.6548 53.6512 27.2567 55.4308L48.8697 77.0414L70.5565 55.3496L68.9466 53.7397L67.0539 55.6323C65.7413 56.9473 63.6127 56.9424 62.2952 55.6323L62.0322 55.3693C60.7197 54.0592 60.7197 51.933 62.0322 50.6106L62.6222 50.0207L66.4738 46.1715L67.0564 45.5816C68.3714 44.269 70.4975 44.2666 71.8199 45.5792L72.0756 45.8372C73.3955 47.1523 73.3906 49.2809 72.0756 50.6008L71.493 51.1858L71.4979 51.1907L71.0358 51.6479L75.207 55.8191C76.8637 57.4733 76.8637 60.1796 75.2095 61.8387ZM19.7156 33.2917C19.9122 33.4932 20.244 33.4883 20.4407 33.2892L26.797 26.9329C26.9986 26.7338 26.9986 26.4069 26.797 26.2078C26.5955 26.0062 26.2685 26.0062 26.0719 26.2053L19.7156 32.5617C19.514 32.7632 19.514 33.0877 19.7156 33.2917ZM63.7725 67.2561C62.9417 66.4229 61.5923 66.4229 60.7615 67.2561C59.9307 68.0894 59.9356 69.4364 60.7615 70.2672C61.5972 71.1004 62.9417 71.1004 63.7725 70.2696C64.6008 69.4364 64.6008 68.0918 63.7725 67.2561Z" fill="white"/>
</g>
<defs>
<clipPath id="clip0">
<rect width="86" height="86" fill="white"/>
</clipPath>
</defs>
</svg>
