<svg width="75" height="75" viewBox="0 0 75 75" fill="none" xmlns="http://www.w3.org/2000/svg">
<path d="M37.5 0C16.7925 0 0 16.7925 0 37.5C0 58.2075 16.7925 75 37.5 75C58.2075 75 75 58.2075 75 37.5C75 16.7925 58.2075 0 37.5 0ZM54.6221 29.2385C54.6387 29.6076 54.6467 29.9784 54.6467 30.3509C54.6467 41.7246 45.9892 54.8401 30.1569 54.8407H30.1575H30.1569C25.296 54.8407 20.7727 53.4159 16.9636 50.9743C17.6371 51.0538 18.3226 51.0933 19.0166 51.0933C23.0495 51.0933 26.7609 49.7177 29.7071 47.4089C25.9392 47.3391 22.7623 44.8505 21.666 41.4305C22.1907 41.5312 22.7303 41.5861 23.2836 41.5861C24.0692 41.5861 24.8302 41.4803 25.5535 41.2828C21.615 40.4943 18.6481 37.0136 18.6481 32.8457C18.6481 32.8068 18.6481 32.7719 18.6493 32.7358C19.8092 33.3807 21.1355 33.7687 22.5477 33.8121C20.2366 32.2701 18.7174 29.6339 18.7174 26.6476C18.7174 25.0706 19.1437 23.5931 19.883 22.3211C24.1276 27.5293 30.471 30.9546 37.6247 31.3145C37.4771 30.6839 37.401 30.027 37.401 29.3518C37.401 24.6002 41.256 20.7453 46.0093 20.7453C48.4852 20.7453 50.7214 21.7918 52.2921 23.465C54.253 23.0782 56.0944 22.3618 57.7578 21.3758C57.114 23.3849 55.7499 25.0706 53.9726 26.1366C55.7138 25.9283 57.3732 25.4665 58.9153 24.781C57.7635 26.5074 56.3026 28.0237 54.6221 29.2385Z" fill="white"/>
</svg>
