<svg width="291" height="48" viewBox="0 0 291 48" fill="none" xmlns="http://www.w3.org/2000/svg">
<path d="M0.765625 20.3125C0.765625 19.3854 0.942708 18.5156 1.29688 17.7031C1.65104 16.8906 2.13021 16.1823 2.73438 15.5781C3.34896 14.9635 4.0625 14.4792 4.875 14.125C5.6875 13.7708 6.55729 13.5938 7.48438 13.5938H17.7656V18.0781H7.48438C7.17188 18.0781 6.88021 18.1354 6.60938 18.25C6.33854 18.3646 6.09896 18.526 5.89062 18.7344C5.69271 18.9323 5.53646 19.1667 5.42188 19.4375C5.30729 19.7083 5.25 20 5.25 20.3125C5.25 20.625 5.30729 20.9219 5.42188 21.2031C5.53646 21.474 5.69271 21.7135 5.89062 21.9219C6.09896 22.1198 6.33854 22.276 6.60938 22.3906C6.88021 22.5052 7.17188 22.5625 7.48438 22.5625H11.9688C12.8958 22.5625 13.7656 22.7396 14.5781 23.0938C15.401 23.4375 16.1146 23.9167 16.7188 24.5312C17.3333 25.1354 17.8125 25.849 18.1562 26.6719C18.5104 27.4844 18.6875 28.3542 18.6875 29.2812C18.6875 30.2083 18.5104 31.0781 18.1562 31.8906C17.8125 32.7031 17.3333 33.4167 16.7188 34.0312C16.1146 34.6354 15.401 35.1146 14.5781 35.4688C13.7656 35.8229 12.8958 36 11.9688 36H2.01562V31.5156H11.9688C12.2812 31.5156 12.5729 31.4583 12.8438 31.3438C13.1146 31.2292 13.349 31.0729 13.5469 30.875C13.7552 30.6667 13.9167 30.4271 14.0312 30.1562C14.1458 29.8854 14.2031 29.5938 14.2031 29.2812C14.2031 28.9688 14.1458 28.6771 14.0312 28.4062C13.9167 28.1354 13.7552 27.901 13.5469 27.7031C13.349 27.4948 13.1146 27.3333 12.8438 27.2188C12.5729 27.1042 12.2812 27.0469 11.9688 27.0469H7.48438C6.55729 27.0469 5.6875 26.8698 4.875 26.5156C4.0625 26.1615 3.34896 25.6823 2.73438 25.0781C2.13021 24.4635 1.65104 23.75 1.29688 22.9375C0.942708 22.1146 0.765625 21.2396 0.765625 20.3125ZM30.7344 36H26.2656V18.0781H19.5312V13.5938H37.4531V18.0781H30.7344V36ZM44.3125 18.0781V27.0469H48.7969C49.4115 27.0469 49.9896 26.9323 50.5312 26.7031C51.0729 26.4635 51.5469 26.1406 51.9531 25.7344C52.3594 25.3281 52.6771 24.8542 52.9062 24.3125C53.1458 23.7604 53.2656 23.1771 53.2656 22.5625C53.2656 21.9479 53.1458 21.3698 52.9062 20.8281C52.6771 20.276 52.3594 19.7969 51.9531 19.3906C51.5469 18.9844 51.0729 18.6667 50.5312 18.4375C49.9896 18.1979 49.4115 18.0781 48.7969 18.0781H44.3125ZM44.3125 36H39.8281V13.5938H48.7969C49.6198 13.5938 50.4115 13.7031 51.1719 13.9219C51.9323 14.1302 52.6406 14.4323 53.2969 14.8281C53.9635 15.2135 54.5677 15.6823 55.1094 16.2344C55.6615 16.776 56.1302 17.3802 56.5156 18.0469C56.9115 18.7135 57.2135 19.4271 57.4219 20.1875C57.6406 20.9479 57.75 21.7396 57.75 22.5625C57.75 23.7917 57.5156 24.9531 57.0469 26.0469C56.5781 27.1302 55.9375 28.0781 55.125 28.8906C54.3125 29.7031 53.3594 30.3438 52.2656 30.8125C51.1823 31.2812 50.026 31.5156 48.7969 31.5156H44.3125V36Z" fill="white"/>
<path d="M76.0781 36H60.3906V13.5938H64.875V31.5156H76.0781V36ZM99.5938 24.8906C99.5938 25.9531 99.4531 26.9792 99.1719 27.9688C98.901 28.9479 98.5156 29.8698 98.0156 30.7344C97.5156 31.5885 96.9115 32.3698 96.2031 33.0781C95.4948 33.7865 94.7135 34.3958 93.8594 34.9062C93.0052 35.4062 92.0833 35.7917 91.0938 36.0625C90.1042 36.3438 89.0781 36.4844 88.0156 36.4844C86.9531 36.4844 85.9271 36.3438 84.9375 36.0625C83.9583 35.7917 83.0365 35.4062 82.1719 34.9062C81.3177 34.3958 80.5365 33.7865 79.8281 33.0781C79.1198 32.3698 78.5104 31.5885 78 30.7344C77.5 29.8698 77.1094 28.9479 76.8281 27.9688C76.5573 26.9792 76.4219 25.9531 76.4219 24.8906C76.4219 23.8281 76.5573 22.8021 76.8281 21.8125C77.1094 20.8229 77.5 19.901 78 19.0469C78.5104 18.1927 79.1198 17.4115 79.8281 16.7031C80.5365 15.9948 81.3177 15.3906 82.1719 14.8906C83.0365 14.3906 83.9583 14.0052 84.9375 13.7344C85.9271 13.4531 86.9531 13.3125 88.0156 13.3125C89.0781 13.3125 90.1042 13.4531 91.0938 13.7344C92.0833 14.0052 93.0052 14.3906 93.8594 14.8906C94.7135 15.3906 95.4948 15.9948 96.2031 16.7031C96.9115 17.4115 97.5156 18.1927 98.0156 19.0469C98.5156 19.901 98.901 20.8229 99.1719 21.8125C99.4531 22.8021 99.5938 23.8281 99.5938 24.8906ZM95.1406 24.8906C95.1406 23.9115 94.9531 22.9896 94.5781 22.125C94.2031 21.25 93.6927 20.4948 93.0469 19.8594C92.4115 19.2135 91.6562 18.7031 90.7812 18.3281C89.9167 17.9531 88.9948 17.7656 88.0156 17.7656C87.026 17.7656 86.099 17.9531 85.2344 18.3281C84.3698 18.7031 83.6146 19.2135 82.9688 19.8594C82.3229 20.4948 81.8125 21.25 81.4375 22.125C81.0625 22.9896 80.875 23.9115 80.875 24.8906C80.875 25.8698 81.0625 26.7917 81.4375 27.6562C81.8125 28.5104 82.3229 29.2604 82.9688 29.9062C83.6146 30.5521 84.3698 31.0625 85.2344 31.4375C86.099 31.8125 87.026 32 88.0156 32C88.9948 32 89.9167 31.8125 90.7812 31.4375C91.6562 31.0625 92.4115 30.5521 93.0469 29.9062C93.6927 29.2604 94.2031 28.5104 94.5781 27.6562C94.9531 26.7917 95.1406 25.8698 95.1406 24.8906ZM120.375 33.7344C119.333 34.6198 118.172 35.3021 116.891 35.7812C115.609 36.25 114.276 36.4844 112.891 36.4844C111.828 36.4844 110.802 36.3438 109.812 36.0625C108.833 35.7917 107.917 35.4062 107.062 34.9062C106.208 34.3958 105.427 33.7917 104.719 33.0938C104.01 32.3854 103.406 31.6042 102.906 30.75C102.406 29.8854 102.016 28.9583 101.734 27.9688C101.464 26.9792 101.328 25.9531 101.328 24.8906C101.328 23.8281 101.464 22.8073 101.734 21.8281C102.016 20.849 102.406 19.9323 102.906 19.0781C103.406 18.2135 104.01 17.4323 104.719 16.7344C105.427 16.026 106.208 15.4219 107.062 14.9219C107.917 14.4219 108.833 14.0365 109.812 13.7656C110.802 13.4844 111.828 13.3438 112.891 13.3438C114.276 13.3438 115.609 13.5833 116.891 14.0625C118.172 14.5312 119.333 15.2083 120.375 16.0938L118.031 20C117.354 19.3125 116.573 18.776 115.688 18.3906C114.802 17.9948 113.87 17.7969 112.891 17.7969C111.911 17.7969 110.99 17.9844 110.125 18.3594C109.271 18.7344 108.521 19.2448 107.875 19.8906C107.229 20.526 106.719 21.276 106.344 22.1406C105.969 22.9948 105.781 23.9115 105.781 24.8906C105.781 25.8802 105.969 26.8073 106.344 27.6719C106.719 28.5365 107.229 29.2917 107.875 29.9375C108.521 30.5833 109.271 31.0938 110.125 31.4688C110.99 31.8438 111.911 32.0312 112.891 32.0312C113.453 32.0312 114 31.9635 114.531 31.8281C115.062 31.6927 115.568 31.5052 116.047 31.2656V24.8906H120.375V33.7344ZM128.312 36H123.828V13.5938H128.312V36ZM131.172 20.3125C131.172 19.3854 131.349 18.5156 131.703 17.7031C132.057 16.8906 132.536 16.1823 133.141 15.5781C133.755 14.9635 134.469 14.4792 135.281 14.125C136.094 13.7708 136.964 13.5938 137.891 13.5938H148.172V18.0781H137.891C137.578 18.0781 137.286 18.1354 137.016 18.25C136.745 18.3646 136.505 18.526 136.297 18.7344C136.099 18.9323 135.943 19.1667 135.828 19.4375C135.714 19.7083 135.656 20 135.656 20.3125C135.656 20.625 135.714 20.9219 135.828 21.2031C135.943 21.474 136.099 21.7135 136.297 21.9219C136.505 22.1198 136.745 22.276 137.016 22.3906C137.286 22.5052 137.578 22.5625 137.891 22.5625H142.375C143.302 22.5625 144.172 22.7396 144.984 23.0938C145.807 23.4375 146.521 23.9167 147.125 24.5312C147.74 25.1354 148.219 25.849 148.562 26.6719C148.917 27.4844 149.094 28.3542 149.094 29.2812C149.094 30.2083 148.917 31.0781 148.562 31.8906C148.219 32.7031 147.74 33.4167 147.125 34.0312C146.521 34.6354 145.807 35.1146 144.984 35.4688C144.172 35.8229 143.302 36 142.375 36H132.422V31.5156H142.375C142.688 31.5156 142.979 31.4583 143.25 31.3438C143.521 31.2292 143.755 31.0729 143.953 30.875C144.161 30.6667 144.323 30.4271 144.438 30.1562C144.552 29.8854 144.609 29.5938 144.609 29.2812C144.609 28.9688 144.552 28.6771 144.438 28.4062C144.323 28.1354 144.161 27.901 143.953 27.7031C143.755 27.4948 143.521 27.3333 143.25 27.2188C142.979 27.1042 142.688 27.0469 142.375 27.0469H137.891C136.964 27.0469 136.094 26.8698 135.281 26.5156C134.469 26.1615 133.755 25.6823 133.141 25.0781C132.536 24.4635 132.057 23.75 131.703 22.9375C131.349 22.1146 131.172 21.2396 131.172 20.3125ZM161.141 36H156.672V18.0781H149.938V13.5938H167.859V18.0781H161.141V36ZM174.719 36H170.234V13.5938H174.719V36ZM196.781 33.7031C195.74 34.599 194.573 35.2865 193.281 35.7656C191.99 36.2448 190.651 36.4844 189.266 36.4844C188.203 36.4844 187.177 36.3438 186.188 36.0625C185.208 35.7917 184.286 35.4062 183.422 34.9062C182.568 34.3958 181.786 33.7865 181.078 33.0781C180.37 32.3698 179.76 31.5885 179.25 30.7344C178.75 29.8698 178.359 28.9479 178.078 27.9688C177.807 26.9792 177.672 25.9531 177.672 24.8906C177.672 23.8281 177.807 22.8021 178.078 21.8125C178.359 20.8229 178.75 19.901 179.25 19.0469C179.76 18.1823 180.37 17.3958 181.078 16.6875C181.786 15.9792 182.568 15.375 183.422 14.875C184.286 14.3646 185.208 13.974 186.188 13.7031C187.177 13.4219 188.203 13.2812 189.266 13.2812C190.651 13.2812 191.99 13.5208 193.281 14C194.573 14.4688 195.74 15.1562 196.781 16.0625L194.406 19.9688C193.75 19.2604 192.974 18.7188 192.078 18.3438C191.182 17.9583 190.245 17.7656 189.266 17.7656C188.276 17.7656 187.349 17.9531 186.484 18.3281C185.62 18.7031 184.865 19.2135 184.219 19.8594C183.573 20.4948 183.062 21.25 182.688 22.125C182.312 22.9896 182.125 23.9115 182.125 24.8906C182.125 25.8698 182.312 26.7917 182.688 27.6562C183.062 28.5104 183.573 29.2604 184.219 29.9062C184.865 30.5521 185.62 31.0625 186.484 31.4375C187.349 31.8125 188.276 32 189.266 32C190.245 32 191.182 31.8125 192.078 31.4375C192.974 31.0521 193.75 30.5052 194.406 29.7969L196.781 33.7031ZM197.797 20.3125C197.797 19.3854 197.974 18.5156 198.328 17.7031C198.682 16.8906 199.161 16.1823 199.766 15.5781C200.38 14.9635 201.094 14.4792 201.906 14.125C202.719 13.7708 203.589 13.5938 204.516 13.5938H214.797V18.0781H204.516C204.203 18.0781 203.911 18.1354 203.641 18.25C203.37 18.3646 203.13 18.526 202.922 18.7344C202.724 18.9323 202.568 19.1667 202.453 19.4375C202.339 19.7083 202.281 20 202.281 20.3125C202.281 20.625 202.339 20.9219 202.453 21.2031C202.568 21.474 202.724 21.7135 202.922 21.9219C203.13 22.1198 203.37 22.276 203.641 22.3906C203.911 22.5052 204.203 22.5625 204.516 22.5625H209C209.927 22.5625 210.797 22.7396 211.609 23.0938C212.432 23.4375 213.146 23.9167 213.75 24.5312C214.365 25.1354 214.844 25.849 215.188 26.6719C215.542 27.4844 215.719 28.3542 215.719 29.2812C215.719 30.2083 215.542 31.0781 215.188 31.8906C214.844 32.7031 214.365 33.4167 213.75 34.0312C213.146 34.6354 212.432 35.1146 211.609 35.4688C210.797 35.8229 209.927 36 209 36H199.047V31.5156H209C209.312 31.5156 209.604 31.4583 209.875 31.3438C210.146 31.2292 210.38 31.0729 210.578 30.875C210.786 30.6667 210.948 30.4271 211.062 30.1562C211.177 29.8854 211.234 29.5938 211.234 29.2812C211.234 28.9688 211.177 28.6771 211.062 28.4062C210.948 28.1354 210.786 27.901 210.578 27.7031C210.38 27.4948 210.146 27.3333 209.875 27.2188C209.604 27.1042 209.312 27.0469 209 27.0469H204.516C203.589 27.0469 202.719 26.8698 201.906 26.5156C201.094 26.1615 200.38 25.6823 199.766 25.0781C199.161 24.4635 198.682 23.75 198.328 22.9375C197.974 22.1146 197.797 21.2396 197.797 20.3125Z" fill="#AC87FF"/>
<path d="M232.799 30.2373C233.551 30.2373 234.22 30.9051 234.22 31.6564V31.7398C234.22 32.4911 233.551 33.159 232.799 33.159H228.117H226.361C225.608 33.159 224.939 33.8268 224.939 34.5781V34.6615C224.939 35.4128 225.608 36.0807 226.361 36.0807H229.203H248.684C258.8 25.4791 262.061 12.2062 255.791 5.19413C255.54 4.86022 255.205 4.60979 254.871 4.27588H249.353H244.002H231.377C230.625 4.27588 229.956 4.9437 229.956 5.69499V5.77847C229.956 6.52976 230.625 7.19758 231.377 7.19758H241.745H245.674C246.427 7.19758 247.095 7.86539 247.095 8.61669V8.70016C247.095 9.45146 246.427 10.1193 245.674 10.1193H241.159H234.053C233.3 10.1193 232.631 10.7871 232.631 11.5384V11.6219C232.631 12.3732 233.3 13.041 234.053 13.041H240.574H251.276C252.028 13.041 252.697 13.7088 252.697 14.4601V14.5436C252.697 15.2949 252.028 15.9627 251.276 15.9627H239.905H221.261C220.508 15.9627 219.839 16.6305 219.839 17.3818V17.4653C219.839 18.2166 220.508 18.8844 221.261 18.8844H231.712H233.551C234.303 18.8844 234.972 19.5522 234.972 20.3035V20.387C234.972 21.1383 234.303 21.8061 233.551 21.8061H231.712H227.615C226.862 21.8061 226.194 22.4739 226.194 23.2252V23.3087C226.194 24.0599 226.862 24.7278 227.615 24.7278H238.066H240.574C241.327 24.7278 241.995 25.3956 241.995 26.1469V25.8964C241.995 26.6477 241.327 27.3156 240.574 27.3156H237.397H219.421C218.669 27.3156 218 27.9834 218 28.7347V28.8181C218 29.5694 218.669 30.2373 219.421 30.2373H219.589H228.785H232.799V30.2373ZM249.938 10.0358C249.102 10.0358 248.517 9.36798 248.517 8.61669C248.517 7.78192 249.186 7.19758 249.938 7.19758C250.774 7.19758 251.359 7.86539 251.359 8.61669C251.359 9.36798 250.774 10.0358 249.938 10.0358ZM246.845 25.8964C246.845 26.7312 246.176 27.3156 245.423 27.3156C244.587 27.3156 244.002 26.6477 244.002 25.8964C244.002 25.0617 244.671 24.4773 245.423 24.4773C246.259 24.3939 246.845 25.0617 246.845 25.8964ZM238.484 21.5556C237.731 21.5556 237.063 20.8878 237.063 20.1365V20.053C237.063 19.3018 237.731 18.6339 238.484 18.6339H243.082C243.835 18.6339 244.504 19.3018 244.504 20.053V20.1365C244.504 20.8878 243.835 21.5556 243.082 21.5556H238.484Z" fill="url(#paint0_linear)"/>
<path d="M269.92 28.2338H264.737L269.502 5.86192C269.669 4.94368 269.084 4.19238 268.165 4.19238H258.884C259.219 4.44281 259.469 4.77672 259.804 5.11063C266.074 12.1227 262.814 25.3956 252.697 35.9971H268.332C269.251 35.9971 270.171 35.2459 270.338 34.3276L271.258 29.9033C271.425 28.9851 270.84 28.2338 269.92 28.2338Z" fill="url(#paint1_linear)"/>
<path d="M289.986 30.2373H289.652L290.571 25.9799C290.739 25.0617 290.571 23.6426 290.07 22.8078L284.05 12.0393C283.632 11.2045 282.461 10.5367 281.542 10.5367H270.171C269.251 10.5367 268.332 11.288 268.165 12.2062L263.483 34.2442C263.315 35.1624 263.901 35.9137 264.82 35.9137H286.809C286.893 35.9137 286.893 35.9137 286.976 35.9137C287.06 35.9137 287.06 35.9137 287.143 35.9137H288.899C289.484 35.9137 290.153 35.4129 290.237 34.8285L290.989 31.3225C291.073 30.7381 290.655 30.2373 289.986 30.2373Z" fill="url(#paint2_linear)"/>
<path d="M286.475 22.4738C286.391 22.8912 285.806 23.3086 285.137 23.3086H271.091C270.506 23.3086 270.088 22.8077 270.171 22.2234L271.927 13.9592C272.094 13.3748 272.679 12.874 273.265 12.874H280.538C281.124 12.874 281.876 13.2913 282.211 13.8757L286.057 20.7208C286.391 21.2217 286.558 22.0564 286.475 22.4738Z" fill="white"/>
<path d="M281.458 35.9971C280.789 39.0858 277.779 41.5901 274.602 41.5901C271.509 41.5901 269.502 39.0858 270.171 35.9971C270.84 32.9085 273.85 30.4042 277.027 30.4042C280.12 30.4042 282.043 32.9085 281.458 35.9971Z" fill="url(#paint3_linear)"/>
<path d="M278.114 35.9971C277.863 37.2493 276.609 38.3345 275.271 38.3345C274.017 38.3345 273.181 37.2493 273.432 35.9971C273.683 34.745 274.937 33.6598 276.274 33.6598C277.612 33.6598 278.365 34.6615 278.114 35.9971Z" fill="white"/>
<path d="M246.51 35.9971C245.841 39.0858 242.831 41.5901 239.654 41.5901C236.561 41.5901 234.554 39.0858 235.223 35.9971C235.892 32.9085 238.902 30.4042 242.079 30.4042C245.172 30.4042 247.179 32.9085 246.51 35.9971Z" fill="url(#paint4_linear)"/>
<path d="M243.25 35.9971C242.999 37.2493 241.745 38.3345 240.407 38.3345C239.153 38.3345 238.317 37.2493 238.567 35.9971C238.818 34.745 240.072 33.6598 241.41 33.6598C242.748 33.6598 243.5 34.6615 243.25 35.9971Z" fill="white"/>
<path d="M252.864 37.5832C244.754 44.8457 235.14 48.5187 227.615 47.7674C234.304 47.1831 242.079 43.5936 248.851 37.5832C260.974 26.7312 265.238 11.7888 258.466 4.27588C256.292 1.85505 253.115 0.435938 249.52 0.10203C254.787 -0.398833 259.469 0.936801 262.396 4.27588C269.335 11.7888 264.987 26.6477 252.864 37.5832Z" fill="url(#paint5_linear)"/>
<defs>
<linearGradient id="paint0_linear" x1="271.091" y1="20.1051" x2="216.465" y2="20.1051" gradientUnits="userSpaceOnUse">
<stop offset="0.1241" stop-color="#FE0600"/>
<stop offset="0.8621" stop-color="#FFB904"/>
</linearGradient>
<linearGradient id="paint1_linear" x1="253.021" y1="23.279" x2="298.602" y2="9.72613" gradientUnits="userSpaceOnUse">
<stop stop-color="#9700F2"/>
<stop offset="1" stop-color="#3F7AFF"/>
</linearGradient>
<linearGradient id="paint2_linear" x1="255.166" y1="30.492" x2="300.747" y2="16.9391" gradientUnits="userSpaceOnUse">
<stop stop-color="#9700F2"/>
<stop offset="1" stop-color="#3F7AFF"/>
</linearGradient>
<linearGradient id="paint3_linear" x1="258.336" y1="41.153" x2="303.917" y2="27.6001" gradientUnits="userSpaceOnUse">
<stop stop-color="#9700F2"/>
<stop offset="1" stop-color="#3F7AFF"/>
</linearGradient>
<linearGradient id="paint4_linear" x1="271.091" y1="35.9786" x2="216.465" y2="35.9786" gradientUnits="userSpaceOnUse">
<stop offset="0.1241" stop-color="#FE0600"/>
<stop offset="0.8621" stop-color="#FFB904"/>
</linearGradient>
<linearGradient id="paint5_linear" x1="252.273" y1="20.7635" x2="297.854" y2="7.21074" gradientUnits="userSpaceOnUse">
<stop stop-color="#9700F2"/>
<stop offset="1" stop-color="#3F7AFF"/>
</linearGradient>
</defs>
</svg>
