<svg width="225" height="37" viewBox="0 0 225 37" fill="none" xmlns="http://www.w3.org/2000/svg">
<path d="M0.574219 15.3265C0.574219 14.6312 0.707031 13.9788 0.972656 13.3694C1.23828 12.7601 1.59766 12.2288 2.05078 11.7757C2.51172 11.3148 3.04688 10.9515 3.65625 10.6859C4.26562 10.4202 4.91797 10.2874 5.61328 10.2874H13.3242V13.6507H5.61328C5.37891 13.6507 5.16016 13.6937 4.95703 13.7796C4.75391 13.8655 4.57422 13.9866 4.41797 14.1429C4.26953 14.2913 4.15234 14.4671 4.06641 14.6702C3.98047 14.8734 3.9375 15.0921 3.9375 15.3265C3.9375 15.5609 3.98047 15.7835 4.06641 15.9944C4.15234 16.1976 4.26953 16.3773 4.41797 16.5335C4.57422 16.6819 4.75391 16.7991 4.95703 16.8851C5.16016 16.971 5.37891 17.014 5.61328 17.014H8.97656C9.67188 17.014 10.3242 17.1468 10.9336 17.4124C11.5508 17.6702 12.0859 18.0296 12.5391 18.4905C13 18.9437 13.3594 19.4788 13.6172 20.096C13.8828 20.7054 14.0156 21.3577 14.0156 22.053C14.0156 22.7484 13.8828 23.4007 13.6172 24.0101C13.3594 24.6194 13 25.1546 12.5391 25.6155C12.0859 26.0687 11.5508 26.428 10.9336 26.6937C10.3242 26.9593 9.67188 27.0921 8.97656 27.0921H1.51172V23.7288H8.97656C9.21094 23.7288 9.42969 23.6859 9.63281 23.5999C9.83594 23.514 10.0117 23.3968 10.1602 23.2484C10.3164 23.0921 10.4375 22.9124 10.5234 22.7093C10.6094 22.5062 10.6523 22.2874 10.6523 22.053C10.6523 21.8187 10.6094 21.5999 10.5234 21.3968C10.4375 21.1937 10.3164 21.0179 10.1602 20.8694C10.0117 20.7132 9.83594 20.5921 9.63281 20.5062C9.42969 20.4202 9.21094 20.3773 8.97656 20.3773H5.61328C4.91797 20.3773 4.26562 20.2444 3.65625 19.9788C3.04688 19.7132 2.51172 19.3538 2.05078 18.9007C1.59766 18.4398 1.23828 17.9046 0.972656 17.2952C0.707031 16.678 0.574219 16.0218 0.574219 15.3265ZM23.0508 27.0921H19.6992V13.6507H14.6484V10.2874H28.0898V13.6507H23.0508V27.0921ZM33.2344 13.6507V20.3773H36.5977C37.0586 20.3773 37.4922 20.2913 37.8984 20.1194C38.3047 19.9398 38.6602 19.6976 38.9648 19.3929C39.2695 19.0882 39.5078 18.7327 39.6797 18.3265C39.8594 17.9124 39.9492 17.4749 39.9492 17.014C39.9492 16.553 39.8594 16.1194 39.6797 15.7132C39.5078 15.2991 39.2695 14.9398 38.9648 14.6351C38.6602 14.3304 38.3047 14.0921 37.8984 13.9202C37.4922 13.7405 37.0586 13.6507 36.5977 13.6507H33.2344ZM33.2344 27.0921H29.8711V10.2874H36.5977C37.2148 10.2874 37.8086 10.3694 38.3789 10.5335C38.9492 10.6898 39.4805 10.9163 39.9727 11.2132C40.4727 11.5023 40.9258 11.8538 41.332 12.2679C41.7461 12.6741 42.0977 13.1273 42.3867 13.6273C42.6836 14.1273 42.9102 14.6624 43.0664 15.2327C43.2305 15.803 43.3125 16.3968 43.3125 17.014C43.3125 17.9359 43.1367 18.8069 42.7852 19.6273C42.4336 20.4398 41.9531 21.1507 41.3438 21.7601C40.7344 22.3694 40.0195 22.8499 39.1992 23.2015C38.3867 23.553 37.5195 23.7288 36.5977 23.7288H33.2344V27.0921Z" fill="white"/>
<path d="M57.0586 27.0921H45.293V10.2874H48.6562V23.7288H57.0586V27.0921ZM74.6953 18.7601C74.6953 19.5569 74.5898 20.3265 74.3789 21.0687C74.1758 21.803 73.8867 22.4944 73.5117 23.1429C73.1367 23.7835 72.6836 24.3694 72.1523 24.9007C71.6211 25.4319 71.0352 25.889 70.3945 26.2718C69.7539 26.6468 69.0625 26.9359 68.3203 27.139C67.5781 27.3499 66.8086 27.4554 66.0117 27.4554C65.2148 27.4554 64.4453 27.3499 63.7031 27.139C62.9688 26.9359 62.2773 26.6468 61.6289 26.2718C60.9883 25.889 60.4023 25.4319 59.8711 24.9007C59.3398 24.3694 58.8828 23.7835 58.5 23.1429C58.125 22.4944 57.832 21.803 57.6211 21.0687C57.418 20.3265 57.3164 19.5569 57.3164 18.7601C57.3164 17.9632 57.418 17.1937 57.6211 16.4515C57.832 15.7093 58.125 15.0179 58.5 14.3773C58.8828 13.7366 59.3398 13.1507 59.8711 12.6194C60.4023 12.0882 60.9883 11.6351 61.6289 11.2601C62.2773 10.8851 62.9688 10.596 63.7031 10.3929C64.4453 10.1819 65.2148 10.0765 66.0117 10.0765C66.8086 10.0765 67.5781 10.1819 68.3203 10.3929C69.0625 10.596 69.7539 10.8851 70.3945 11.2601C71.0352 11.6351 71.6211 12.0882 72.1523 12.6194C72.6836 13.1507 73.1367 13.7366 73.5117 14.3773C73.8867 15.0179 74.1758 15.7093 74.3789 16.4515C74.5898 17.1937 74.6953 17.9632 74.6953 18.7601ZM71.3555 18.7601C71.3555 18.0257 71.2148 17.3343 70.9336 16.6859C70.6523 16.0296 70.2695 15.4632 69.7852 14.9866C69.3086 14.5023 68.7422 14.1194 68.0859 13.8382C67.4375 13.5569 66.7461 13.4163 66.0117 13.4163C65.2695 13.4163 64.5742 13.5569 63.9258 13.8382C63.2773 14.1194 62.7109 14.5023 62.2266 14.9866C61.7422 15.4632 61.3594 16.0296 61.0781 16.6859C60.7969 17.3343 60.6562 18.0257 60.6562 18.7601C60.6562 19.4944 60.7969 20.1859 61.0781 20.8343C61.3594 21.4749 61.7422 22.0374 62.2266 22.5218C62.7109 23.0062 63.2773 23.389 63.9258 23.6702C64.5742 23.9515 65.2695 24.0921 66.0117 24.0921C66.7461 24.0921 67.4375 23.9515 68.0859 23.6702C68.7422 23.389 69.3086 23.0062 69.7852 22.5218C70.2695 22.0374 70.6523 21.4749 70.9336 20.8343C71.2148 20.1859 71.3555 19.4944 71.3555 18.7601ZM90.2812 25.3929C89.5 26.0569 88.6289 26.5687 87.668 26.928C86.707 27.2796 85.707 27.4554 84.668 27.4554C83.8711 27.4554 83.1016 27.3499 82.3594 27.139C81.625 26.9359 80.9375 26.6468 80.2969 26.2718C79.6562 25.889 79.0703 25.4359 78.5391 24.9124C78.0078 24.3812 77.5547 23.7952 77.1797 23.1546C76.8047 22.5062 76.5117 21.8109 76.3008 21.0687C76.0977 20.3265 75.9961 19.5569 75.9961 18.7601C75.9961 17.9632 76.0977 17.1976 76.3008 16.4632C76.5117 15.7288 76.8047 15.0413 77.1797 14.4007C77.5547 13.7523 78.0078 13.1663 78.5391 12.6429C79.0703 12.1116 79.6562 11.6585 80.2969 11.2835C80.9375 10.9085 81.625 10.6194 82.3594 10.4163C83.1016 10.2054 83.8711 10.0999 84.668 10.0999C85.707 10.0999 86.707 10.2796 87.668 10.639C88.6289 10.9905 89.5 11.4984 90.2812 12.1624L88.5234 15.0921C88.0156 14.5765 87.4297 14.1741 86.7656 13.8851C86.1016 13.5882 85.4023 13.4398 84.668 13.4398C83.9336 13.4398 83.2422 13.5804 82.5938 13.8616C81.9531 14.1429 81.3906 14.5257 80.9062 15.0101C80.4219 15.4866 80.0391 16.0491 79.7578 16.6976C79.4766 17.3382 79.3359 18.0257 79.3359 18.7601C79.3359 19.5023 79.4766 20.1976 79.7578 20.846C80.0391 21.4944 80.4219 22.0609 80.9062 22.5452C81.3906 23.0296 81.9531 23.4124 82.5938 23.6937C83.2422 23.9749 83.9336 24.1155 84.668 24.1155C85.0898 24.1155 85.5 24.0648 85.8984 23.9632C86.2969 23.8616 86.6758 23.721 87.0352 23.5413V18.7601H90.2812V25.3929ZM96.2344 27.0921H92.8711V10.2874H96.2344V27.0921ZM98.3789 15.3265C98.3789 14.6312 98.5117 13.9788 98.7773 13.3694C99.043 12.7601 99.4023 12.2288 99.8555 11.7757C100.316 11.3148 100.852 10.9515 101.461 10.6859C102.07 10.4202 102.723 10.2874 103.418 10.2874H111.129V13.6507H103.418C103.184 13.6507 102.965 13.6937 102.762 13.7796C102.559 13.8655 102.379 13.9866 102.223 14.1429C102.074 14.2913 101.957 14.4671 101.871 14.6702C101.785 14.8734 101.742 15.0921 101.742 15.3265C101.742 15.5609 101.785 15.7835 101.871 15.9944C101.957 16.1976 102.074 16.3773 102.223 16.5335C102.379 16.6819 102.559 16.7991 102.762 16.8851C102.965 16.971 103.184 17.014 103.418 17.014H106.781C107.477 17.014 108.129 17.1468 108.738 17.4124C109.355 17.6702 109.891 18.0296 110.344 18.4905C110.805 18.9437 111.164 19.4788 111.422 20.096C111.688 20.7054 111.82 21.3577 111.82 22.053C111.82 22.7484 111.688 23.4007 111.422 24.0101C111.164 24.6194 110.805 25.1546 110.344 25.6155C109.891 26.0687 109.355 26.428 108.738 26.6937C108.129 26.9593 107.477 27.0921 106.781 27.0921H99.3164V23.7288H106.781C107.016 23.7288 107.234 23.6859 107.438 23.5999C107.641 23.514 107.816 23.3968 107.965 23.2484C108.121 23.0921 108.242 22.9124 108.328 22.7093C108.414 22.5062 108.457 22.2874 108.457 22.053C108.457 21.8187 108.414 21.5999 108.328 21.3968C108.242 21.1937 108.121 21.0179 107.965 20.8694C107.816 20.7132 107.641 20.5921 107.438 20.5062C107.234 20.4202 107.016 20.3773 106.781 20.3773H103.418C102.723 20.3773 102.07 20.2444 101.461 19.9788C100.852 19.7132 100.316 19.3538 99.8555 18.9007C99.4023 18.4398 99.043 17.9046 98.7773 17.2952C98.5117 16.678 98.3789 16.0218 98.3789 15.3265ZM120.855 27.0921H117.504V13.6507H112.453V10.2874H125.895V13.6507H120.855V27.0921ZM131.039 27.0921H127.676V10.2874H131.039V27.0921ZM147.586 25.3694C146.805 26.0413 145.93 26.5569 144.961 26.9163C143.992 27.2757 142.988 27.4554 141.949 27.4554C141.152 27.4554 140.383 27.3499 139.641 27.139C138.906 26.9359 138.215 26.6468 137.566 26.2718C136.926 25.889 136.34 25.4319 135.809 24.9007C135.277 24.3694 134.82 23.7835 134.438 23.1429C134.062 22.4944 133.77 21.803 133.559 21.0687C133.355 20.3265 133.254 19.5569 133.254 18.7601C133.254 17.9632 133.355 17.1937 133.559 16.4515C133.77 15.7093 134.062 15.0179 134.438 14.3773C134.82 13.7288 135.277 13.139 135.809 12.6077C136.34 12.0765 136.926 11.6234 137.566 11.2484C138.215 10.8655 138.906 10.5726 139.641 10.3694C140.383 10.1585 141.152 10.053 141.949 10.053C142.988 10.053 143.992 10.2327 144.961 10.5921C145.93 10.9437 146.805 11.4593 147.586 12.139L145.805 15.0687C145.312 14.5374 144.73 14.1312 144.059 13.8499C143.387 13.5609 142.684 13.4163 141.949 13.4163C141.207 13.4163 140.512 13.5569 139.863 13.8382C139.215 14.1194 138.648 14.5023 138.164 14.9866C137.68 15.4632 137.297 16.0296 137.016 16.6859C136.734 17.3343 136.594 18.0257 136.594 18.7601C136.594 19.4944 136.734 20.1859 137.016 20.8343C137.297 21.4749 137.68 22.0374 138.164 22.5218C138.648 23.0062 139.215 23.389 139.863 23.6702C140.512 23.9515 141.207 24.0921 141.949 24.0921C142.684 24.0921 143.387 23.9515 144.059 23.6702C144.73 23.3812 145.312 22.971 145.805 22.4398L147.586 25.3694ZM148.348 15.3265C148.348 14.6312 148.48 13.9788 148.746 13.3694C149.012 12.7601 149.371 12.2288 149.824 11.7757C150.285 11.3148 150.82 10.9515 151.43 10.6859C152.039 10.4202 152.691 10.2874 153.387 10.2874H161.098V13.6507H153.387C153.152 13.6507 152.934 13.6937 152.73 13.7796C152.527 13.8655 152.348 13.9866 152.191 14.1429C152.043 14.2913 151.926 14.4671 151.84 14.6702C151.754 14.8734 151.711 15.0921 151.711 15.3265C151.711 15.5609 151.754 15.7835 151.84 15.9944C151.926 16.1976 152.043 16.3773 152.191 16.5335C152.348 16.6819 152.527 16.7991 152.73 16.8851C152.934 16.971 153.152 17.014 153.387 17.014H156.75C157.445 17.014 158.098 17.1468 158.707 17.4124C159.324 17.6702 159.859 18.0296 160.312 18.4905C160.773 18.9437 161.133 19.4788 161.391 20.096C161.656 20.7054 161.789 21.3577 161.789 22.053C161.789 22.7484 161.656 23.4007 161.391 24.0101C161.133 24.6194 160.773 25.1546 160.312 25.6155C159.859 26.0687 159.324 26.428 158.707 26.6937C158.098 26.9593 157.445 27.0921 156.75 27.0921H149.285V23.7288H156.75C156.984 23.7288 157.203 23.6859 157.406 23.5999C157.609 23.514 157.785 23.3968 157.934 23.2484C158.09 23.0921 158.211 22.9124 158.297 22.7093C158.383 22.5062 158.426 22.2874 158.426 22.053C158.426 21.8187 158.383 21.5999 158.297 21.3968C158.211 21.1937 158.09 21.0179 157.934 20.8694C157.785 20.7132 157.609 20.5921 157.406 20.5062C157.203 20.4202 156.984 20.3773 156.75 20.3773H153.387C152.691 20.3773 152.039 20.2444 151.43 19.9788C150.82 19.7132 150.285 19.3538 149.824 18.9007C149.371 18.4398 149.012 17.9046 148.746 17.2952C148.48 16.678 148.348 16.0218 148.348 15.3265Z" fill="#AC87FF"/>
<path d="M179.96 23.3743C180.542 23.3743 181.059 23.8905 181.059 24.4713V24.5358C181.059 25.1166 180.542 25.6328 179.96 25.6328H176.341H174.983C174.402 25.6328 173.885 26.1491 173.885 26.7298V26.7944C173.885 27.3751 174.402 27.8914 174.983 27.8914H177.181H192.24C200.06 19.696 202.581 9.43573 197.734 4.01519C197.54 3.75707 197.281 3.56348 197.023 3.30536H192.757H188.621H178.861C178.28 3.30536 177.763 3.8216 177.763 4.40237V4.4669C177.763 5.04768 178.28 5.56392 178.861 5.56392H186.876H189.913C190.495 5.56392 191.012 6.08016 191.012 6.66093V6.72546C191.012 7.30623 190.495 7.82248 189.913 7.82248H186.423H180.93C180.348 7.82248 179.831 8.33872 179.831 8.91949V8.98402C179.831 9.56479 180.348 10.081 180.93 10.081H185.971H194.244C194.825 10.081 195.342 10.5973 195.342 11.178V11.2426C195.342 11.8233 194.825 12.3396 194.244 12.3396H185.454H171.041C170.459 12.3396 169.942 12.8558 169.942 13.4366V13.5011C169.942 14.0819 170.459 14.5981 171.041 14.5981H179.12H180.542C181.123 14.5981 181.64 15.1144 181.64 15.6952V15.7597C181.64 16.3405 181.123 16.8567 180.542 16.8567H179.12H175.953C175.371 16.8567 174.854 17.3729 174.854 17.9537V18.0183C174.854 18.599 175.371 19.1153 175.953 19.1153H184.032H185.971C186.552 19.1153 187.07 19.6315 187.07 20.2123V20.0187C187.07 20.5995 186.552 21.1157 185.971 21.1157H183.515H169.619C169.037 21.1157 168.52 21.6319 168.52 22.2127V22.2772C168.52 22.858 169.037 23.3743 169.619 23.3743H169.748H176.858H179.96V23.3743ZM193.209 7.75794C192.563 7.75794 192.111 7.2417 192.111 6.66093C192.111 6.01563 192.628 5.56392 193.209 5.56392C193.856 5.56392 194.308 6.08016 194.308 6.66093C194.308 7.2417 193.856 7.75794 193.209 7.75794ZM190.818 20.0187C190.818 20.664 190.301 21.1157 189.719 21.1157C189.073 21.1157 188.621 20.5995 188.621 20.0187C188.621 19.3734 189.138 18.9217 189.719 18.9217C190.366 18.8571 190.818 19.3734 190.818 20.0187ZM184.355 16.6631C183.773 16.6631 183.256 16.1469 183.256 15.5661V15.5016C183.256 14.9208 183.773 14.4046 184.355 14.4046H187.91C188.491 14.4046 189.008 14.9208 189.008 15.5016V15.5661C189.008 16.1469 188.491 16.6631 187.91 16.6631H184.355Z" fill="url(#paint0_linear)"/>
<path d="M208.656 21.8255H204.649L208.333 4.53145C208.462 3.82162 208.01 3.24084 207.299 3.24084H200.125C200.384 3.43444 200.577 3.69256 200.836 3.95068C205.683 9.37122 203.163 19.6315 195.342 27.8269H207.428C208.139 27.8269 208.85 27.2461 208.979 26.5363L209.69 23.1162C209.82 22.4063 209.367 21.8255 208.656 21.8255Z" fill="url(#paint1_linear)"/>
<path d="M224.168 23.3743H223.909L224.62 20.0832C224.749 19.3734 224.62 18.2764 224.232 17.6311L219.579 9.30669C219.256 8.66138 218.351 8.14514 217.64 8.14514H208.85C208.139 8.14514 207.428 8.72591 207.299 9.43575L203.68 26.4717C203.55 27.1816 204.003 27.7623 204.714 27.7623H221.712C221.776 27.7623 221.776 27.7623 221.841 27.7623C221.906 27.7623 221.906 27.7623 221.97 27.7623H223.328C223.78 27.7623 224.297 27.3752 224.362 26.9234L224.943 24.2132C225.008 23.7615 224.685 23.3743 224.168 23.3743Z" fill="url(#paint2_linear)"/>
<path d="M221.453 17.3729C221.389 17.6956 220.936 18.0182 220.419 18.0182H209.561C209.109 18.0182 208.786 17.6311 208.85 17.1794L210.207 10.7909C210.337 10.3391 210.789 9.95197 211.242 9.95197H216.864C217.317 9.95197 217.899 10.2746 218.157 10.7263L221.13 16.0178C221.389 16.405 221.518 17.0503 221.453 17.3729Z" fill="white"/>
<path d="M217.575 27.8268C217.058 30.2144 214.732 32.1503 212.276 32.1503C209.884 32.1503 208.333 30.2144 208.85 27.8268C209.367 25.4392 211.694 23.5033 214.15 23.5033C216.541 23.5033 218.028 25.4392 217.575 27.8268Z" fill="url(#paint3_linear)"/>
<path d="M214.99 27.8269C214.796 28.7948 213.827 29.6337 212.793 29.6337C211.823 29.6337 211.177 28.7948 211.371 27.8269C211.565 26.8589 212.534 26.02 213.568 26.02C214.602 26.02 215.184 26.7944 214.99 27.8269Z" fill="white"/>
<path d="M190.56 27.8268C190.043 30.2144 187.716 32.1503 185.26 32.1503C182.868 32.1503 181.317 30.2144 181.834 27.8268C182.351 25.4392 184.678 23.5033 187.134 23.5033C189.525 23.5033 191.077 25.4392 190.56 27.8268Z" fill="url(#paint4_linear)"/>
<path d="M188.039 27.8269C187.845 28.7948 186.876 29.6337 185.842 29.6337C184.872 29.6337 184.226 28.7948 184.42 27.8269C184.614 26.8589 185.583 26.02 186.617 26.02C187.651 26.02 188.233 26.7944 188.039 27.8269Z" fill="white"/>
<path d="M195.472 29.0529C189.202 34.6671 181.77 37.5064 175.953 36.9256C181.123 36.4739 187.134 33.6991 192.369 29.0529C201.741 20.664 205.037 9.1131 199.802 3.30538C198.121 1.43401 195.665 0.336993 192.886 0.0788719C196.958 -0.308309 200.577 0.724174 202.84 3.30538C208.204 9.1131 204.843 20.5995 195.472 29.0529Z" fill="url(#paint5_linear)"/>
<defs>
<linearGradient id="paint0_linear" x1="209.561" y1="15.5418" x2="167.334" y2="15.5418" gradientUnits="userSpaceOnUse">
<stop offset="0.1241" stop-color="#FE0600"/>
<stop offset="0.8621" stop-color="#FFB904"/>
</linearGradient>
<linearGradient id="paint1_linear" x1="195.593" y1="17.9954" x2="230.828" y2="7.51859" gradientUnits="userSpaceOnUse">
<stop stop-color="#9700F2"/>
<stop offset="1" stop-color="#3F7AFF"/>
</linearGradient>
<linearGradient id="paint2_linear" x1="197.251" y1="23.5712" x2="232.486" y2="13.0944" gradientUnits="userSpaceOnUse">
<stop stop-color="#9700F2"/>
<stop offset="1" stop-color="#3F7AFF"/>
</linearGradient>
<linearGradient id="paint3_linear" x1="199.701" y1="31.8125" x2="234.936" y2="21.3356" gradientUnits="userSpaceOnUse">
<stop stop-color="#9700F2"/>
<stop offset="1" stop-color="#3F7AFF"/>
</linearGradient>
<linearGradient id="paint4_linear" x1="209.561" y1="27.8125" x2="167.334" y2="27.8125" gradientUnits="userSpaceOnUse">
<stop offset="0.1241" stop-color="#FE0600"/>
<stop offset="0.8621" stop-color="#FFB904"/>
</linearGradient>
<linearGradient id="paint5_linear" x1="195.015" y1="16.0508" x2="230.25" y2="5.57412" gradientUnits="userSpaceOnUse">
<stop stop-color="#9700F2"/>
<stop offset="1" stop-color="#3F7AFF"/>
</linearGradient>
</defs>
</svg>
