<svg width="149" height="149" viewBox="0 0 149 149" fill="none" xmlns="http://www.w3.org/2000/svg">
<path d="M53.2559 102.438H139.396V123.391H53.2559V102.438Z" fill="#57565C"/>
<path d="M53.2559 48.8906H139.396V102.438H53.2559V48.8906Z" fill="#FF9811"/>
<path d="M23.2812 123.391H9.3125V90.7969L23.9477 65.1875L27.9375 58.2031H53.5469V123.391H46.5625" fill="#E0E0E2"/>
<path d="M34.9219 135.031C41.3508 135.031 46.5625 129.82 46.5625 123.391C46.5625 116.962 41.3508 111.75 34.9219 111.75C28.4929 111.75 23.2812 116.962 23.2812 123.391C23.2812 129.82 28.4929 135.031 34.9219 135.031Z" fill="#2D2D30"/>
<path d="M116.406 135.031C122.835 135.031 128.047 129.82 128.047 123.391C128.047 116.962 122.835 111.75 116.406 111.75C109.977 111.75 104.766 116.962 104.766 123.391C104.766 129.82 109.977 135.031 116.406 135.031Z" fill="#2D2D30"/>
<path d="M34.9219 128.047C37.4935 128.047 39.5781 125.962 39.5781 123.391C39.5781 120.819 37.4935 118.734 34.9219 118.734C32.3503 118.734 30.2656 120.819 30.2656 123.391C30.2656 125.962 32.3503 128.047 34.9219 128.047Z" fill="#E0E0E2"/>
<path d="M116.406 128.047C118.978 128.047 121.062 125.962 121.062 123.391C121.062 120.819 118.978 118.734 116.406 118.734C113.835 118.734 111.75 120.819 111.75 123.391C111.75 125.962 113.835 128.047 116.406 128.047Z" fill="#E0E0E2"/>
<path d="M44.2344 65.1875V90.7969H9.3125L23.9477 65.1875H44.2344Z" fill="#2488FF"/>
<path d="M9.3125 97.7812H16.2969C17.5318 97.7812 18.7161 98.2718 19.5893 99.145C20.4626 100.018 20.9531 101.203 20.9531 102.438C20.9531 103.672 20.4626 104.857 19.5893 105.73C18.7161 106.603 17.5318 107.094 16.2969 107.094H9.3125V97.7812Z" fill="#FFDA44"/>
<path d="M97.7812 88.4688C114.496 88.4688 128.047 74.9184 128.047 58.2031C128.047 41.4879 114.496 27.9375 97.7812 27.9375C81.066 27.9375 67.5156 41.4879 67.5156 58.2031C67.5156 74.9184 81.066 88.4688 97.7812 88.4688Z" fill="#57565C"/>
<path d="M90.7969 13.9688H104.766V20.9531H90.7969V13.9688Z" fill="#FF9811"/>
<path d="M121.062 37.25L125.719 32.5938L121.062 37.25Z" fill="#E0E0E2"/>
<path d="M97.7812 81.4844C110.639 81.4844 121.062 71.061 121.062 58.2031C121.062 45.3452 110.639 34.9219 97.7812 34.9219C84.9234 34.9219 74.5 45.3452 74.5 58.2031C74.5 71.061 84.9234 81.4844 97.7812 81.4844Z" fill="#E0E0E2"/>
<path d="M34.9219 130.375C36.3033 130.375 37.6536 129.965 38.8022 129.198C39.9508 128.43 40.846 127.34 41.3746 126.063C41.9032 124.787 42.0415 123.383 41.772 122.028C41.5026 120.673 40.8374 119.429 39.8606 118.452C38.8838 117.475 37.6393 116.81 36.2845 116.54C34.9296 116.271 33.5253 116.409 32.2491 116.938C30.9728 117.467 29.882 118.362 29.1146 119.51C28.3471 120.659 27.9375 122.009 27.9375 123.391C27.9396 125.242 28.6761 127.018 29.9855 128.327C31.2948 129.636 33.0701 130.373 34.9219 130.375ZM34.9219 121.063C35.3823 121.063 35.8325 121.199 36.2153 121.455C36.5982 121.711 36.8966 122.074 37.0728 122.5C37.249 122.925 37.2951 123.393 37.2053 123.845C37.1154 124.296 36.8937 124.711 36.5681 125.037C36.2425 125.362 35.8277 125.584 35.3761 125.674C34.9245 125.764 34.4563 125.718 34.0309 125.542C33.6055 125.365 33.2419 125.067 32.9861 124.684C32.7303 124.301 32.5937 123.851 32.5937 123.391C32.5944 122.773 32.8399 122.182 33.2764 121.745C33.7129 121.309 34.3046 121.063 34.9219 121.063Z" fill="black"/>
<path d="M116.406 116.406C115.025 116.406 113.675 116.816 112.526 117.583C111.377 118.351 110.482 119.442 109.954 120.718C109.425 121.994 109.287 123.398 109.556 124.753C109.826 126.108 110.491 127.353 111.468 128.329C112.444 129.306 113.689 129.971 115.044 130.241C116.399 130.51 117.803 130.372 119.079 129.843C120.355 129.315 121.446 128.42 122.214 127.271C122.981 126.122 123.391 124.772 123.391 123.391C123.389 121.539 122.652 119.764 121.343 118.454C120.033 117.145 118.258 116.408 116.406 116.406ZM116.406 125.719C115.946 125.719 115.496 125.582 115.113 125.326C114.73 125.071 114.432 124.707 114.255 124.282C114.079 123.856 114.033 123.388 114.123 122.936C114.213 122.485 114.434 122.07 114.76 121.744C115.086 121.419 115.5 121.197 115.952 121.107C116.404 121.017 116.872 121.064 117.297 121.24C117.723 121.416 118.086 121.714 118.342 122.097C118.598 122.48 118.734 122.93 118.734 123.391C118.734 124.008 118.488 124.6 118.052 125.036C117.615 125.473 117.023 125.718 116.406 125.719Z" fill="black"/>
<path d="M139.688 46.5625H128.224C127.063 43.5366 125.456 40.701 123.458 38.1492L127.366 34.2409C127.582 34.0246 127.754 33.7678 127.871 33.4852C127.988 33.2026 128.048 32.8997 128.048 32.5938C128.048 32.2878 127.988 31.9849 127.871 31.7023C127.754 31.4197 127.582 31.1629 127.366 30.9466C127.15 30.7303 126.893 30.5587 126.61 30.4416C126.328 30.3246 126.025 30.2643 125.719 30.2643C125.413 30.2643 125.11 30.3246 124.827 30.4416C124.545 30.5587 124.288 30.7303 124.072 30.9466L120.329 34.6891C114.85 29.4165 107.694 26.2332 100.109 25.6938V23.2812H104.766C105.383 23.2812 105.975 23.036 106.412 22.5994C106.848 22.1627 107.094 21.5706 107.094 20.9531V13.9688C107.094 13.3513 106.848 12.7591 106.412 12.3225C105.975 11.8859 105.383 11.6406 104.766 11.6406H90.7969C90.1794 11.6406 89.5872 11.8859 89.1506 12.3225C88.714 12.7591 88.4688 13.3513 88.4688 13.9688V20.9531C88.4688 21.5706 88.714 22.1627 89.1506 22.5994C89.5872 23.036 90.1794 23.2812 90.7969 23.2812H95.4531V25.6938C89.2692 26.1448 83.3415 28.3468 78.3628 32.0422C73.3841 35.7377 69.5602 40.7741 67.3381 46.5625H53.5469C52.9294 46.5625 52.3372 46.8078 51.9006 47.2444C51.464 47.681 51.2188 48.2732 51.2188 48.8906V55.875H27.9375C27.527 55.8753 27.1239 55.9839 26.7688 56.1898C26.4137 56.3958 26.1191 56.6917 25.9149 57.0478L7.28994 89.6415C7.08951 89.9936 6.9842 90.3918 6.98438 90.7969V123.391C6.98438 124.008 7.22966 124.6 7.66627 125.037C8.10288 125.473 8.69504 125.719 9.3125 125.719H21.151C21.4721 127.603 22.1755 129.401 23.2181 131.002C24.2606 132.604 25.6202 133.975 27.2129 135.031H4.65625C4.03879 135.031 3.44662 135.277 3.01002 135.713C2.57341 136.15 2.32813 136.742 2.32812 137.359C2.32813 137.977 2.57341 138.569 3.01002 139.006C3.44662 139.442 4.03879 139.688 4.65625 139.688H135.031C135.649 139.688 136.241 139.442 136.677 139.006C137.114 138.569 137.359 137.977 137.359 137.359C137.359 136.742 137.114 136.15 136.677 135.713C136.241 135.277 135.649 135.031 135.031 135.031H124.115C125.708 133.975 127.067 132.604 128.11 131.002C129.153 129.401 129.856 127.603 130.177 125.719H139.688C140.305 125.719 140.897 125.473 141.334 125.037C141.77 124.6 142.016 124.008 142.016 123.391V48.8906C142.016 48.2732 141.77 47.681 141.334 47.2444C140.897 46.8078 140.305 46.5625 139.688 46.5625ZM93.125 18.625V16.2969H102.438V18.625H93.125ZM97.7812 30.2656C103.307 30.2656 108.708 31.9041 113.302 34.9739C117.897 38.0438 121.478 42.407 123.592 47.5119C125.707 52.6168 126.26 58.2341 125.182 63.6535C124.104 69.0728 121.443 74.0508 117.536 77.9579C113.629 81.8651 108.651 84.5258 103.232 85.6038C97.8122 86.6818 92.1949 86.1285 87.09 84.014C81.9851 81.8995 77.6219 78.3187 74.5521 73.7244C71.4823 69.1301 69.8438 63.7286 69.8438 58.2031C69.8526 50.7964 72.7989 43.6955 78.0362 38.4581C83.2736 33.2207 90.3745 30.2745 97.7812 30.2656ZM25.298 67.5156H41.9062V88.4688H13.3256L25.298 67.5156ZM11.6406 100.109H16.2969C16.9143 100.109 17.5065 100.355 17.9431 100.791C18.3797 101.228 18.625 101.82 18.625 102.438C18.625 103.055 18.3797 103.647 17.9431 104.084C17.5065 104.52 16.9143 104.766 16.2969 104.766H11.6406V100.109ZM21.151 121.062H11.6406V109.422H16.2969C18.1492 109.422 19.9258 108.686 21.2356 107.376C22.5454 106.066 23.2812 104.29 23.2812 102.438C23.2812 100.585 22.5454 98.8086 21.2356 97.4988C19.9258 96.189 18.1492 95.4531 16.2969 95.4531H11.6406V93.125H44.2344C44.8518 93.125 45.444 92.8797 45.8806 92.4431C46.3172 92.0065 46.5625 91.4143 46.5625 90.7969V65.1875C46.5625 64.57 46.3172 63.9779 45.8806 63.5413C45.444 63.1047 44.8518 62.8594 44.2344 62.8594H27.9579L29.2878 60.5312H51.2188V121.062H48.6927C48.1431 117.808 46.4585 114.853 43.9376 112.722C41.4168 110.591 38.2227 109.422 34.9219 109.422C31.6211 109.422 28.427 110.591 25.9062 112.722C23.3853 114.853 21.7006 117.808 21.151 121.062ZM34.9219 132.703C33.08 132.703 31.2796 132.157 29.7481 131.134C28.2167 130.11 27.0231 128.656 26.3182 126.954C25.6134 125.253 25.429 123.38 25.7883 121.574C26.1476 119.767 27.0346 118.108 28.3369 116.806C29.6393 115.503 31.2986 114.616 33.1051 114.257C34.9115 113.898 36.784 114.082 38.4856 114.787C40.1872 115.492 41.6417 116.685 42.6649 118.217C43.6882 119.748 44.2344 121.549 44.2344 123.391C44.2321 125.86 43.2502 128.227 41.5043 129.973C39.7583 131.719 37.391 132.701 34.9219 132.703ZM42.6309 135.031C44.2236 133.975 45.5831 132.604 46.6257 131.002C47.6682 129.401 48.3717 127.603 48.6927 125.719H102.635C102.956 127.603 103.66 129.401 104.702 131.002C105.745 132.604 107.105 133.975 108.697 135.031H42.6309ZM116.406 132.703C114.564 132.703 112.764 132.157 111.232 131.134C109.701 130.11 108.507 128.656 107.803 126.954C107.098 125.253 106.913 123.38 107.273 121.574C107.632 119.767 108.519 118.108 109.821 116.806C111.124 115.503 112.783 114.616 114.589 114.257C116.396 113.898 118.268 114.082 119.97 114.787C121.672 115.492 123.126 116.685 124.149 118.217C125.173 119.748 125.719 121.549 125.719 123.391C125.716 125.86 124.735 128.227 122.989 129.973C121.243 131.719 118.875 132.701 116.406 132.703ZM137.359 121.062H130.177C129.627 117.808 127.943 114.853 125.422 112.722C122.901 110.591 119.707 109.422 116.406 109.422C113.105 109.422 109.911 110.591 107.391 112.722C104.87 114.853 103.185 117.808 102.635 121.062H55.875V104.766H137.359V121.062ZM137.359 100.109H55.875V51.2188H65.9441C64.9002 55.9788 64.9369 60.9124 66.0516 65.6563C67.1663 70.4003 69.3306 74.834 72.3851 78.631C75.4397 82.4281 79.3068 85.4919 83.7018 87.5969C88.0969 89.702 92.9081 90.7947 97.7812 90.7947C102.654 90.7947 107.466 89.702 111.861 87.5969C116.256 85.4919 120.123 82.4281 123.177 78.631C126.232 74.834 128.396 70.4003 129.511 65.6563C130.626 60.9124 130.662 55.9788 129.618 51.2188H137.359V100.109Z" fill="black"/>
<path d="M97.7812 83.8125C102.846 83.8125 107.798 82.3105 112.009 79.4965C116.22 76.6826 119.503 72.6829 121.441 68.0034C123.38 63.3239 123.887 58.1747 122.899 53.207C121.91 48.2393 119.471 43.6761 115.89 40.0946C112.308 36.513 107.745 34.074 102.777 33.0858C97.8096 32.0977 92.6605 32.6048 87.981 34.5432C83.3015 36.4815 79.3018 39.7639 76.4878 43.9753C73.6738 48.1868 72.1719 53.1381 72.1719 58.2031C72.1796 64.9928 74.8802 71.5022 79.6812 76.3032C84.4822 81.1042 90.9916 83.8048 97.7812 83.8125ZM97.7812 37.25C101.925 37.25 105.976 38.4789 109.422 40.7812C112.868 43.0836 115.554 46.356 117.139 50.1847C118.725 54.0134 119.14 58.2264 118.332 62.2909C117.523 66.3554 115.528 70.0889 112.597 73.0192C109.667 75.9496 105.934 77.9452 101.869 78.7537C97.8045 79.5621 93.5915 79.1472 89.7628 77.5613C85.9342 75.9754 82.6617 73.2898 80.3594 69.8441C78.057 66.3983 76.8281 62.3473 76.8281 58.2031C76.8344 52.6479 79.0439 47.322 82.972 43.3939C86.9002 39.4658 92.226 37.2563 97.7812 37.25Z" fill="black"/>
<path d="M100.791 64.5056C101.007 64.7218 101.264 64.8933 101.547 65.0103C101.829 65.1273 102.132 65.1876 102.437 65.1876C102.743 65.1876 103.046 65.1273 103.328 65.0103C103.611 64.8933 103.868 64.7218 104.084 64.5056C104.3 64.2895 104.471 64.0328 104.588 63.7503C104.705 63.4679 104.766 63.1651 104.766 62.8594C104.766 62.5536 104.705 62.2509 104.588 61.9684C104.471 61.6859 104.3 61.4293 104.084 61.2131L100.109 57.239V48.8906C100.109 48.2732 99.8641 47.681 99.4275 47.2444C98.9909 46.8078 98.3987 46.5625 97.7812 46.5625C97.1638 46.5625 96.5716 46.8078 96.135 47.2444C95.6984 47.681 95.4531 48.2732 95.4531 48.8906V58.2031C95.4531 58.5089 95.5133 58.8116 95.6303 59.0941C95.7473 59.3765 95.9188 59.6332 96.135 59.8494L100.791 64.5056Z" fill="black"/>
<path d="M144.344 135.031H142.016C141.398 135.031 140.806 135.277 140.369 135.713C139.933 136.15 139.688 136.742 139.688 137.359C139.688 137.977 139.933 138.569 140.369 139.006C140.806 139.442 141.398 139.688 142.016 139.688H144.344C144.961 139.688 145.553 139.442 145.99 139.006C146.427 138.569 146.672 137.977 146.672 137.359C146.672 136.742 146.427 136.15 145.99 135.713C145.553 135.277 144.961 135.031 144.344 135.031Z" fill="black"/>
</svg>
