<svg width="150" height="150" viewBox="0 0 150 150" fill="none" xmlns="http://www.w3.org/2000/svg">
<g clip-path="url(#clip0)">
<path d="M143.182 95.4545H6.81826C3.06826 95.4545 0 92.3863 0 88.6363V13.6363C0 9.88625 3.06826 6.81799 6.81826 6.81799H143.182C146.932 6.81799 150 9.88625 150 13.6363V88.6363C150 92.3863 146.932 95.4545 143.182 95.4545Z" fill="#0E9347"/>
<path d="M126.136 68.1816C118.295 68.1816 111.136 71.9316 107.045 78.0679C103.636 76.3637 99.8862 74.9999 95.4545 74.9999C83.5227 74.9999 73.6362 83.8637 71.9317 95.4544H143.182C146.591 95.4544 149.318 93.0682 150 89.6589C148.636 77.7271 138.409 68.1816 126.136 68.1816Z" fill="#0D8944"/>
<path d="M129.545 88.6362H20.4545C20.4545 81.1362 14.3183 74.9999 6.81825 74.9999V27.2727C14.3183 27.2727 20.4545 21.1365 20.4545 13.6365H129.545C129.545 21.1365 135.682 27.2727 143.182 27.2727V74.9999C135.682 74.9999 129.545 81.1362 129.545 88.6362Z" fill="#3BB54A"/>
<path d="M126.136 68.1819C118.295 68.1819 111.136 71.9319 107.045 78.0681C103.636 76.3639 99.8862 75.0001 95.4545 75.0001C85.909 75.0001 77.7273 80.4546 73.9773 88.6364H129.546C129.546 81.1364 135.341 75.3409 142.841 75.0001C138.409 70.9091 132.614 68.1819 126.136 68.1819Z" fill="#0E9347"/>
<path d="M75 81.8181C90.0623 81.8181 102.273 68.0814 102.273 51.1363C102.273 34.1913 90.0623 20.4546 75 20.4546C59.9377 20.4546 47.7273 34.1913 47.7273 51.1363C47.7273 68.0814 59.9377 81.8181 75 81.8181Z" fill="#0E9347"/>
<path d="M34.091 57.9546C37.8566 57.9546 40.9093 54.902 40.9093 51.1364C40.9093 47.3708 37.8566 44.3181 34.091 44.3181C30.3254 44.3181 27.2728 47.3708 27.2728 51.1364C27.2728 54.902 30.3254 57.9546 34.091 57.9546Z" fill="#0E9347"/>
<path d="M115.909 57.9546C119.675 57.9546 122.727 54.902 122.727 51.1364C122.727 47.3708 119.675 44.3181 115.909 44.3181C112.143 44.3181 109.091 47.3708 109.091 51.1364C109.091 54.902 112.143 57.9546 115.909 57.9546Z" fill="#0E9347"/>
<path d="M78.409 47.7272H71.5907C69.5452 47.7272 68.1817 46.3634 68.1817 44.3182C68.1817 42.2727 69.5455 40.9092 71.5907 40.9092H81.818C83.8635 40.9092 85.2269 39.5454 85.2269 37.5002C85.2269 35.4547 83.8632 34.0912 81.818 34.0912H78.409C78.409 32.0457 77.0452 30.6823 75 30.6823C72.9545 30.6823 71.591 32.046 71.591 34.0912C65.7955 34.0912 61.3638 38.523 61.3638 44.3185C61.3638 50.114 65.7955 54.5457 71.591 54.5457H78.4093C80.4548 54.5457 81.8183 55.9095 81.8183 57.9547C81.8183 60.0002 80.4545 61.3637 78.4093 61.3637H68.182C66.1365 61.3637 64.773 62.7275 64.773 64.7727C64.773 66.8182 66.1368 68.1817 68.182 68.1817H71.591C71.591 70.2272 72.9548 71.5906 75 71.5906C77.0455 71.5906 78.409 70.2269 78.409 68.1817C84.2045 68.1817 88.6362 63.7499 88.6362 57.9544C88.6362 52.1589 84.2045 47.7272 78.409 47.7272Z" fill="#89C763"/>
<path d="M88.6362 122.728C101.816 122.728 112.5 112.043 112.5 98.8638C112.5 85.6842 101.816 75 88.6362 75C75.4566 75 64.7725 85.6842 64.7725 98.8638C64.7725 112.043 75.4566 122.728 88.6362 122.728Z" fill="#FFCA5D"/>
<path d="M119.318 115.909C132.498 115.909 143.182 105.225 143.182 92.0454C143.182 78.8658 132.498 68.1816 119.318 68.1816C106.139 68.1816 95.4545 78.8658 95.4545 92.0454C95.4545 105.225 106.139 115.909 119.318 115.909Z" fill="#F6B545"/>
<path d="M119.318 68.1816C106.023 68.1816 95.4545 78.7499 95.4545 92.0454C95.4545 105.341 106.023 115.909 119.318 115.909C132.614 115.909 143.182 105.341 143.182 92.0454C143.182 78.7499 132.614 68.1816 119.318 68.1816ZM119.318 109.091C109.773 109.091 102.273 101.591 102.273 92.0454C102.273 82.4999 109.773 74.9999 119.318 74.9999C128.864 74.9999 136.364 82.4999 136.364 92.0454C136.364 101.591 128.864 109.091 119.318 109.091Z" fill="#FFCB5B"/>
<path d="M119.318 115.568C132.614 115.909 143.182 105 143.182 92.0454H142.841C141.137 92.0454 139.773 93.4092 139.432 95.1137C138.75 99.8864 136.364 104.318 132.955 107.386C130.228 110.114 126.478 111.818 122.387 112.5C120.682 112.5 119.318 113.864 119.318 115.568Z" fill="#F6B545"/>
<path d="M119.318 68.5227C106.023 68.1817 95.4545 79.0909 95.4545 92.0454H95.7955C97.5 92.0454 98.8638 90.6817 99.2045 88.9772C99.8862 84.2044 102.273 79.7727 105.682 76.7044C108.409 73.9772 112.159 72.2727 116.25 71.5906C117.955 71.5909 119.318 70.2272 119.318 68.5227Z" fill="#FFE27A"/>
<path d="M104.659 94.4317C104.659 84.8862 112.159 77.3862 121.704 77.3862C125.796 77.3862 129.546 78.75 132.613 81.4772C129.204 77.3862 124.773 75 119.318 75C109.773 75 102.273 82.5 102.273 92.0455C102.273 97.5 104.659 101.932 108.409 105C106.023 102.273 104.659 98.5228 104.659 94.4317Z" fill="#F19920"/>
<path d="M129.546 102.614C129.205 102.614 128.864 102.614 128.523 102.273C127.841 101.591 127.841 100.568 128.523 99.8866C130.568 97.8411 131.591 94.7728 131.591 92.0456C131.591 91.0228 132.273 90.3411 133.296 90.3411C134.318 90.3411 135 91.0228 135 92.0456C135 95.7956 133.636 99.5456 131.25 102.273C130.568 102.614 129.886 102.614 129.546 102.614Z" fill="#FFCB5B"/>
<path d="M119.318 102.273C117.273 102.273 115.909 100.909 115.909 98.8638V85.2276C115.909 83.1821 117.273 81.8186 119.318 81.8186C121.364 81.8186 122.727 83.1824 122.727 85.2276V98.8638C122.727 100.909 121.364 102.273 119.318 102.273Z" fill="#F19920"/>
<path d="M131.932 112.159C129.546 103.636 123.409 96.818 115.568 93.75C114.204 85.909 109.091 79.091 102.613 75C98.5225 79.4317 95.7952 85.2272 95.7952 91.7045C95.7952 105 106.363 115.568 119.659 115.568C124.091 115.909 128.182 114.546 131.932 112.159Z" fill="#F19920"/>
<path d="M108.409 105C106.023 101.932 104.318 98.1817 104.318 94.091C104.318 89.3182 106.363 84.8865 109.772 81.8182C109.091 80.7955 108.409 80.1137 107.727 79.432C104.318 82.5003 102.272 86.932 102.272 92.0458C102.273 97.5 104.659 101.932 108.409 105Z" fill="#E78825"/>
<path d="M115.909 94.0909V98.8637C115.909 100.909 117.273 102.273 119.318 102.273C121.363 102.273 122.727 100.909 122.727 98.8637V98.182C120.682 96.4772 118.295 95.1137 115.909 94.0909Z" fill="#E78825"/>
<path d="M131.932 112.159C131.25 109.773 130.568 107.727 129.204 105.682C126.477 107.727 123.068 109.091 119.318 109.091C109.773 109.091 102.273 101.591 102.273 92.0452C102.273 86.9315 104.318 82.4997 107.727 79.4315C106.023 77.727 104.318 76.3632 102.273 75.3405C98.1817 79.7722 95.4545 85.5677 95.4545 92.0449C95.4545 105.34 106.023 115.909 119.318 115.909C124.091 115.909 128.182 114.546 131.932 112.159Z" fill="#F6B545"/>
<path d="M130.909 109.091C128.523 110.796 125.454 111.818 122.386 112.5C120.682 112.841 119.318 114.205 119.318 115.909C124.091 115.909 128.182 114.545 131.932 112.159C131.591 111.136 131.25 110.114 130.909 109.091Z" fill="#F19920"/>
<path d="M102.273 75.3409C98.1817 79.7727 95.4545 85.5682 95.4545 92.0454H95.7955C97.5 92.0454 98.8638 90.6817 99.2045 88.9772C99.8862 84.2044 102.273 80.1134 105.341 77.0454C104.318 76.7044 103.296 76.0227 102.273 75.3409Z" fill="#FFCB5B"/>
<path d="M88.6362 122.728C101.816 122.728 112.5 112.043 112.5 98.8638C112.5 85.6842 101.816 75 88.6362 75C75.4566 75 64.7725 85.6842 64.7725 98.8638C64.7725 112.043 75.4566 122.728 88.6362 122.728Z" fill="#F6B545"/>
<path d="M85.2272 115.909C85.2272 118.295 85.5682 120.341 86.25 122.727C86.9317 122.727 87.9545 122.727 88.6362 122.727C101.932 122.727 112.5 112.159 112.5 98.8635C112.5 96.4773 112.159 94.4318 111.477 92.0453C110.795 92.0453 109.773 92.0453 109.091 92.0453C95.7955 92.0456 85.2272 102.614 85.2272 115.909Z" fill="#F19920"/>
<path d="M88.6362 75C75.3407 75 64.7725 85.5683 64.7725 98.8638C64.7725 112.159 75.3407 122.728 88.6362 122.728C101.932 122.728 112.5 112.159 112.5 98.8638C112.5 85.5686 101.932 75 88.6362 75ZM88.6362 115.909C79.0907 115.909 71.5907 108.409 71.5907 98.8635C71.5907 89.318 79.0907 81.818 88.6362 81.818C98.1817 81.818 105.682 89.318 105.682 98.8635C105.682 108.409 98.1817 115.909 88.6362 115.909Z" fill="#FFCB5B"/>
<path d="M88.6362 122.386C101.932 122.727 112.5 111.818 112.5 98.8636H112.159C110.454 98.8636 109.091 100.227 108.75 101.932C108.068 106.705 105.682 111.136 102.273 114.205C99.5455 116.932 95.7955 118.636 91.7045 119.318C90 119.318 88.6362 120.682 88.6362 122.386Z" fill="#F6B545"/>
<path d="M88.6362 75.341C75.3407 75 64.7725 85.9093 64.7725 98.8638H65.1135C66.818 98.8638 68.1817 97.5 68.5225 95.7955C69.2042 91.0228 71.5907 86.591 74.9997 83.5228C77.727 80.7955 81.477 79.091 85.568 78.409C87.2728 78.409 88.6362 77.0455 88.6362 75.341Z" fill="#FFE27A"/>
<path d="M73.9772 101.25C73.9772 91.7045 81.4772 84.2045 91.0228 84.2045C95.1138 84.2045 98.8638 85.5682 101.932 88.2955C98.5228 84.2045 94.0907 81.8182 88.6362 81.8182C79.0907 81.8182 71.5907 89.3182 71.5907 98.8637C71.5907 104.318 73.9769 108.75 77.7269 111.818C75.341 109.091 73.9772 105.341 73.9772 101.25Z" fill="#F19920"/>
<path d="M98.8638 109.432C98.5228 109.432 98.182 109.432 97.841 109.091C97.1593 108.409 97.1593 107.386 97.841 106.704C99.8865 104.659 100.909 101.591 100.909 98.8634C100.909 97.8407 101.591 97.1589 102.614 97.1589C103.637 97.1589 104.318 97.8407 104.318 98.8634C104.318 102.613 102.955 106.363 100.568 109.091C99.8862 109.432 99.2045 109.432 98.8638 109.432Z" fill="#FFCB5B"/>
<path d="M88.6362 109.091C86.5907 109.091 85.2272 107.727 85.2272 105.682V92.046C85.2272 90.0004 86.591 88.637 88.6362 88.637C90.6817 88.637 92.0452 90.0007 92.0452 92.046V105.682C92.0455 107.727 90.6817 109.091 88.6362 109.091Z" fill="#F19920"/>
<path d="M104.318 92.3863C105 94.4318 105.682 96.4773 105.682 98.8635C105.682 108.409 98.182 115.909 88.6365 115.909C87.6138 115.909 86.2503 115.909 85.2275 115.568V115.909C85.2275 118.295 85.5686 120.341 86.2503 122.727C86.932 122.727 87.9548 122.727 88.6365 122.727C101.932 122.727 112.5 112.159 112.5 98.8635C112.5 96.4773 112.159 94.4318 111.478 92.0453C110.796 92.0453 109.773 92.0453 109.091 92.0453C107.386 92.0456 106.023 92.0456 104.318 92.3863Z" fill="#F6B545"/>
<path d="M105.682 143.182C118.861 143.182 129.546 132.498 129.546 119.318C129.546 106.139 118.861 95.4546 105.682 95.4546C92.5021 95.4546 81.818 106.139 81.818 119.318C81.818 132.498 92.5021 143.182 105.682 143.182Z" fill="#F6B545"/>
<path d="M105.682 95.4546C92.3862 95.4546 81.818 106.023 81.818 119.318C81.818 132.614 92.3862 143.182 105.682 143.182C118.977 143.182 129.546 132.614 129.546 119.318C129.546 106.023 118.977 95.4546 105.682 95.4546ZM105.682 136.364C96.1362 136.364 88.6362 128.864 88.6362 119.318C88.6362 109.773 96.1362 102.273 105.682 102.273C115.227 102.273 122.727 109.773 122.727 119.318C122.727 128.864 115.227 136.364 105.682 136.364Z" fill="#FFCB5B"/>
<path d="M105.682 142.841C118.977 143.182 129.546 132.273 129.546 119.318H129.205C127.5 119.318 126.136 120.682 125.796 122.386C125.114 127.159 122.727 131.591 119.318 134.659C116.591 137.386 112.841 139.091 108.75 139.773C107.046 139.773 105.682 141.136 105.682 142.841Z" fill="#F6B545"/>
<path d="M105.682 95.7955C92.3862 95.4545 81.818 106.364 81.818 119.318H82.159C83.8635 119.318 85.2272 117.954 85.568 116.25C86.2497 111.477 88.6362 107.046 92.0452 103.977C94.7724 101.25 98.5224 99.5455 102.613 98.8635C104.318 98.8638 105.682 97.5 105.682 95.7955Z" fill="#FFE27A"/>
<path d="M91.0228 121.704C91.0228 112.159 98.5227 104.659 108.068 104.659C112.159 104.659 115.909 106.023 118.977 108.75C115.568 104.659 111.136 102.273 105.682 102.273C96.1362 102.273 88.6362 109.773 88.6362 119.318C88.6362 124.773 91.0225 129.204 94.7725 132.273C92.3862 129.545 91.0228 125.795 91.0228 121.704Z" fill="#F19920"/>
<path d="M115.909 129.886C115.568 129.886 115.227 129.886 114.886 129.545C114.205 128.863 114.205 127.841 114.886 127.159C116.932 125.113 117.955 122.045 117.955 119.318C117.955 118.295 118.636 117.613 119.659 117.613C120.682 117.613 121.364 118.295 121.364 119.318C121.364 123.068 120 126.818 117.613 129.545C116.932 129.886 116.25 129.886 115.909 129.886Z" fill="#FFCB5B"/>
<path d="M105.682 129.546C103.636 129.546 102.273 128.182 102.273 126.137V112.5C102.273 110.455 103.637 109.091 105.682 109.091C107.727 109.091 109.091 110.455 109.091 112.5V126.136C109.091 128.182 107.727 129.546 105.682 129.546Z" fill="#F19920"/>
</g>
<defs>
<clipPath id="clip0">
<rect width="150" height="150" fill="white"/>
</clipPath>
</defs>
</svg>
