<svg width="149" height="149" viewBox="0 0 149 149" fill="none" xmlns="http://www.w3.org/2000/svg">
<path d="M48.8906 139.979V11.6406H128.047V139.688" fill="#5F4D37"/>
<path d="M55.875 139.396V18.625H121.062V139.688" fill="#FF931E"/>
<path d="M60.5312 97.7812H23.2812C21.9955 97.7812 20.9531 98.8236 20.9531 100.109V137.359C20.9531 138.645 21.9955 139.688 23.2812 139.688H60.5312C61.817 139.688 62.8594 138.645 62.8594 137.359V100.109C62.8594 98.8236 61.817 97.7812 60.5312 97.7812Z" fill="#A0815C"/>
<path d="M48.8906 116.406L41.9062 111.75L34.9219 116.406V97.7812H48.8906V116.406Z" fill="#FFDA44"/>
<path d="M27.9375 125.719H34.9219V132.703H27.9375V125.719Z" fill="#E0E0E2"/>
<path d="M109.422 81.4844C111.993 81.4844 114.078 79.3997 114.078 76.8281C114.078 74.2565 111.993 72.1719 109.422 72.1719C106.85 72.1719 104.766 74.2565 104.766 76.8281C104.766 79.3997 106.85 81.4844 109.422 81.4844Z" fill="#E0E0E2"/>
<path d="M34.9219 123.391H27.9375C27.32 123.391 26.7279 123.636 26.2913 124.073C25.8547 124.509 25.6094 125.101 25.6094 125.719V132.703C25.6094 133.321 25.8547 133.913 26.2913 134.349C26.7279 134.786 27.32 135.031 27.9375 135.031H34.9219C35.5393 135.031 36.1315 134.786 36.5681 134.349C37.0047 133.913 37.25 133.321 37.25 132.703V125.719C37.25 125.101 37.0047 124.509 36.5681 124.073C36.1315 123.636 35.5393 123.391 34.9219 123.391ZM32.5938 130.375H30.2656V128.047H32.5938V130.375Z" fill="black"/>
<path d="M48.8906 123.391H41.9062C41.2888 123.391 40.6966 123.636 40.26 124.073C39.8234 124.509 39.5781 125.101 39.5781 125.719C39.5781 126.336 39.8234 126.928 40.26 127.365C40.6966 127.802 41.2888 128.047 41.9062 128.047H48.8906C49.5081 128.047 50.1003 127.802 50.5369 127.365C50.9735 126.928 51.2188 126.336 51.2188 125.719C51.2188 125.101 50.9735 124.509 50.5369 124.073C50.1003 123.636 49.5081 123.391 48.8906 123.391Z" fill="black"/>
<path d="M44.2344 130.375H41.9062C41.2888 130.375 40.6966 130.62 40.26 131.057C39.8234 131.493 39.5781 132.086 39.5781 132.703C39.5781 133.321 39.8234 133.913 40.26 134.349C40.6966 134.786 41.2888 135.031 41.9062 135.031H44.2344C44.8518 135.031 45.444 134.786 45.8806 134.349C46.3172 133.913 46.5625 133.321 46.5625 132.703C46.5625 132.086 46.3172 131.493 45.8806 131.057C45.444 130.62 44.8518 130.375 44.2344 130.375Z" fill="black"/>
<path d="M134.74 137.359H130.375V11.6406C130.375 11.0232 130.13 10.431 129.693 9.99439C129.257 9.55778 128.664 9.3125 128.047 9.3125H48.8906C48.2732 9.3125 47.681 9.55778 47.2444 9.99439C46.8078 10.431 46.5625 11.0232 46.5625 11.6406V95.4531H23.2812C22.0468 95.4547 20.8634 95.9458 19.9906 96.8187C19.1177 97.6916 18.6266 98.875 18.625 100.109V137.359H4.65625C4.03879 137.359 3.44662 137.605 3.01002 138.041C2.57341 138.478 2.32813 139.07 2.32812 139.688C2.32813 140.305 2.57341 140.897 3.01002 141.334C3.44662 141.77 4.03879 142.016 4.65625 142.016H134.74C135.358 142.016 135.95 141.77 136.386 141.334C136.823 140.897 137.068 140.305 137.068 139.688C137.068 139.07 136.823 138.478 136.386 138.041C135.95 137.605 135.358 137.359 134.74 137.359ZM37.25 100.109H46.5625V112.056L43.1984 109.812C42.8154 109.558 42.3659 109.422 41.9062 109.422C41.4466 109.422 40.9971 109.558 40.6141 109.812L37.25 112.056V100.109ZM60.5312 137.359H23.2812V100.109H32.5938V116.406C32.5944 116.827 32.7091 117.241 32.9258 117.602C33.1425 117.963 33.4531 118.259 33.8244 118.458C34.1958 118.656 34.6141 118.751 35.0348 118.731C35.4556 118.711 35.8631 118.577 36.214 118.344L41.9062 114.547L47.5985 118.344C47.9815 118.599 48.4309 118.734 48.8906 118.734C49.5077 118.733 50.0992 118.488 50.5356 118.051C50.9719 117.615 51.2176 117.023 51.2188 116.406V100.109H60.5312L60.5342 137.359H60.5312ZM118.734 137.359H65.1875V100.109C65.1859 98.875 64.6948 97.6916 63.8219 96.8187C62.9491 95.9458 61.7657 95.4547 60.5312 95.4531H58.2031V20.9531H118.734V137.359ZM125.719 137.359H123.391V18.625C123.391 18.0075 123.145 17.4154 122.709 16.9788C122.272 16.5422 121.68 16.2969 121.062 16.2969H55.875C55.2575 16.2969 54.6654 16.5422 54.2288 16.9788C53.7922 17.4154 53.5469 18.0075 53.5469 18.625V95.4531H51.2188V13.9688H125.719V137.359Z" fill="black"/>
<path d="M144.344 137.359H142.016C141.398 137.359 140.806 137.605 140.369 138.041C139.933 138.478 139.688 139.07 139.688 139.688C139.688 140.305 139.933 140.897 140.369 141.334C140.806 141.77 141.398 142.016 142.016 142.016H144.344C144.961 142.016 145.553 141.77 145.99 141.334C146.427 140.897 146.672 140.305 146.672 139.688C146.672 139.07 146.427 138.478 145.99 138.041C145.553 137.605 144.961 137.359 144.344 137.359Z" fill="black"/>
<path d="M97.7812 79.1563H102.838C103.387 80.7096 104.468 82.0188 105.889 82.8525C107.31 83.6861 108.98 83.9905 110.604 83.7119C112.228 83.4333 113.701 82.5896 114.763 81.3299C115.825 80.0703 116.407 78.4757 116.407 76.8281C116.407 75.1805 115.825 73.586 114.763 72.3263C113.701 71.0667 112.228 70.223 110.604 69.9443C108.98 69.6657 107.31 69.9702 105.889 70.8038C104.468 71.6375 103.387 72.9467 102.838 74.5H97.7812C97.1638 74.5 96.5716 74.7453 96.135 75.1819C95.6984 75.6185 95.4531 76.2107 95.4531 76.8281C95.4531 77.4456 95.6984 78.0378 96.135 78.4744C96.5716 78.911 97.1638 79.1563 97.7812 79.1563ZM109.422 74.5C109.882 74.5 110.332 74.6365 110.715 74.8924C111.098 75.1482 111.397 75.5118 111.573 75.9372C111.749 76.3626 111.795 76.8307 111.705 77.2823C111.615 77.7339 111.394 78.1488 111.068 78.4744C110.743 78.8 110.328 79.0217 109.876 79.1115C109.424 79.2014 108.956 79.1552 108.531 78.979C108.106 78.8028 107.742 78.5044 107.486 78.1216C107.23 77.7387 107.094 77.2886 107.094 76.8281C107.094 76.2109 107.34 75.6191 107.776 75.1827C108.213 74.7462 108.805 74.5007 109.422 74.5Z" fill="black"/>
</svg>
