<svg width="150" height="150" viewBox="0 0 150 150" fill="none" xmlns="http://www.w3.org/2000/svg">
<g clip-path="url(#clip0)">
<path d="M86.9251 95.7411C83.518 97.7854 79.7702 98.8076 75.6815 98.8076H73.978C69.8893 98.8076 66.1414 97.7854 62.7343 95.7411L51.8316 88.5862H51.1502V105.622L75.0004 119.251L98.8506 105.622V88.5862H98.1693L86.9251 95.7411Z" fill="#E2B698"/>
<path d="M91.0135 85.1788H51.4908L51.15 91.9932L58.9865 98.4668C63.4158 100.852 68.5266 105.622 73.978 105.622H75.6815C76.7037 105.622 77.3851 105.622 78.4072 105.622C84.8808 104.94 90.673 109.029 90.673 114.821L70.9115 134.242L74.9999 131.175L98.8501 114.48V97.7854V85.1788H91.0135Z" fill="#D8A984"/>
<path d="M3.4498 143.1L5.49414 127.768C6.1755 122.657 9.92337 118.228 15.0342 116.524L51.1499 105.622L75.0001 119.25L98.8503 105.622L134.966 116.865C140.077 118.569 143.825 122.658 144.506 128.109L146.55 143.1C114.523 152.3 35.4771 152.3 3.4498 143.1Z" fill="#D5E3EF"/>
<path d="M112.479 44.2931C112.479 23.5095 95.7836 6.81445 74.9999 6.81445C54.2162 6.81445 37.5212 23.5095 37.5212 44.2931H34.1141V51.1075C34.1141 54.8554 37.1807 57.9219 40.9285 57.9219V70.5285C40.9285 77.6834 44.6764 84.157 50.4686 87.9049L63.0752 95.7414C66.4823 97.7858 70.2301 98.808 74.3188 98.808H76.0223C80.111 98.808 83.8589 97.7858 87.2659 95.7414L99.8726 87.9049C106.005 84.157 109.413 77.6834 109.413 70.5285V57.9219C113.161 57.9219 116.227 54.8554 116.227 51.1075V44.2931H112.479Z" fill="#EFC9AE"/>
<path d="M61.3714 54.5143C63.2531 54.5143 64.7785 52.9889 64.7785 51.1072C64.7785 49.2256 63.2531 47.7002 61.3714 47.7002C59.4897 47.7002 57.9644 49.2256 57.9644 51.1072C57.9644 52.9889 59.4897 54.5143 61.3714 54.5143Z" fill="#595A66"/>
<path d="M88.6287 54.5143C90.5103 54.5143 92.0357 52.9889 92.0357 51.1072C92.0357 49.2256 90.5103 47.7002 88.6287 47.7002C86.747 47.7002 85.2216 49.2256 85.2216 51.1072C85.2216 52.9889 86.747 54.5143 88.6287 54.5143Z" fill="#595A66"/>
<path d="M80.1107 136.286C81.0516 136.286 81.8143 135.523 81.8143 134.583C81.8143 133.642 81.0516 132.879 80.1107 132.879C79.1699 132.879 78.4072 133.642 78.4072 134.583C78.4072 135.523 79.1699 136.286 80.1107 136.286Z" fill="#B0C4D9"/>
<path d="M80.1107 146.508C81.0516 146.508 81.8143 145.745 81.8143 144.804C81.8143 143.863 81.0516 143.1 80.1107 143.1C79.1699 143.1 78.4072 143.863 78.4072 144.804C78.4072 145.745 79.1699 146.508 80.1107 146.508Z" fill="#B0C4D9"/>
<path d="M81.8143 71.5503H74.9999V51.1072L81.8143 71.5503Z" fill="#E2B698"/>
<path d="M37.5212 37.4786H40.9282V61.3289H37.5212C33.7733 61.3289 30.7068 58.2623 30.7068 54.5145V44.293C30.7071 40.5452 33.7733 37.4786 37.5212 37.4786Z" fill="#F04D4E"/>
<path d="M88.6286 132.879V119.25H75.0001C77.0442 125.724 82.155 130.835 88.6286 132.879Z" fill="#B0C4D8"/>
<path d="M88.6286 132.879C86.5843 126.405 81.4737 121.294 75.0001 119.25L81.4737 115.502C88.2881 111.414 94.4208 105.622 98.85 98.8075L101.917 99.8297C106.687 101.533 110.434 104.6 112.819 109.029L88.6286 132.879Z" fill="#70B7E5"/>
<path d="M101.917 99.8294L98.8501 98.8073C98.5093 99.4886 97.8279 100.17 97.4871 100.852C98.5093 101.192 99.1906 101.874 99.872 102.215C103.62 104.94 104.301 110.392 100.894 113.799L90.3319 124.02C87.947 126.405 87.6062 129.472 88.6284 132.538L112.479 108.688C110.435 104.599 106.346 101.192 101.917 99.8294Z" fill="#4C9CD6"/>
<path d="M40.9282 37.4786H37.5211V61.3289H40.9282V37.4786Z" fill="#DE333F"/>
<path d="M112.479 44.2931C112.479 23.5095 95.7836 6.81445 74.9999 6.81445C69.2077 6.81445 64.0971 8.17745 59.3271 10.2215C60.0084 10.2215 60.6901 10.2215 61.3714 10.2215C77.3851 10.2215 91.0135 20.1021 96.4652 34.4122C93.7395 33.3901 91.0138 32.3679 88.6287 31.0052C75.3407 37.1379 58.3049 40.2045 40.9285 40.8858V44.2929C58.3049 43.6115 75.3407 40.2042 88.6287 34.4122C89.9917 35.0936 91.3544 35.7752 92.7174 36.4566C96.1244 38.1601 98.5096 41.2266 98.8501 44.9745C98.8501 45.9967 98.8501 46.678 98.8501 47.7002V73.9353C98.8501 78.024 97.4871 82.1124 95.4431 85.1789H95.1022C94.4209 83.1346 92.3765 81.7719 90.3322 81.7719H80.1108C77.3851 81.7719 74.9999 84.1567 74.9999 86.8827C74.9999 89.6087 77.3848 91.9936 80.1108 91.9936H87.9473L77.0445 98.808C80.4516 98.4671 83.8589 97.445 86.9251 95.7414L99.5317 87.9049C105.664 84.157 109.072 77.6834 109.072 70.5285V57.9219C112.82 57.9219 115.886 54.8554 115.886 51.1075V44.2931H112.479Z" fill="#E2B698"/>
<path d="M88.6287 30.6643C73.6372 37.4787 53.8757 40.8857 34.1141 40.8857V37.4787C34.1141 16.695 50.8091 0 71.5928 0H78.4072C99.1909 0 115.886 16.695 115.886 37.4787C113.501 37.4787 111.457 37.4787 109.072 37.1379C101.576 36.4565 94.4209 34.0717 88.6287 30.6643Z" fill="#DA8C36"/>
<path d="M84.8808 0.681274C97.1466 6.81402 105.664 19.4206 105.664 34.0713V36.4562C106.687 36.797 108.049 36.797 109.072 37.1375C111.457 37.4786 113.501 37.4786 115.886 37.4786C115.886 19.0801 102.598 3.74779 84.8808 0.681274Z" fill="#C97629"/>
<path d="M81.1329 8.17709L71.5928 0L79.0886 11.5844C81.4734 14.9915 82.4956 18.7393 82.8364 22.828C82.8364 25.8946 80.7921 28.2794 77.7256 28.6203C75.6812 28.6203 73.9777 29.3016 71.9333 29.9833C61.0306 33.7311 47.7426 40.2047 34.1138 40.886C52.1718 40.886 70.2295 37.8195 84.8805 32.3681C88.6284 30.6646 88.6283 30.6646 88.6283 30.6646C90.673 22.4872 87.9473 13.6285 81.1329 8.17709Z" fill="#C97629"/>
<path d="M115.886 51.1072C113.842 51.1072 112.479 52.4702 112.479 54.5142V71.55C112.479 77.3423 108.05 81.7715 102.257 81.7715H91.6952C91.0138 79.7271 88.9695 78.3644 86.9251 78.3644H80.1107C77.3851 78.3644 74.9999 80.7493 74.9999 83.4753C74.9999 86.2013 77.3848 88.5862 80.1107 88.5862H102.257C111.797 88.5862 119.293 81.0904 119.293 71.5503V54.5145C119.293 52.4702 117.93 51.1072 115.886 51.1072Z" fill="#595A66"/>
<path d="M117.589 71.5504C116.567 71.5504 115.886 70.869 115.886 69.8469V54.5146C115.886 53.4924 116.567 52.811 117.589 52.811C118.612 52.811 119.293 53.4924 119.293 54.5146V69.8469C119.293 70.8687 118.612 71.5504 117.589 71.5504Z" fill="#494A52"/>
<path d="M112.479 61.3289H109.071V37.4786H112.479C116.226 37.4786 119.293 40.5452 119.293 44.293V54.5145C119.293 58.2623 116.226 61.3289 112.479 61.3289Z" fill="#F04D4E"/>
<path d="M112.479 37.4786H109.071V61.3289H112.479V37.4786Z" fill="#DE333F"/>
<path d="M93.7392 81.7719H100.554C101.576 81.7719 102.257 82.4532 102.257 83.4754C102.257 84.4975 101.576 85.1789 100.554 85.1789H93.7392C92.717 85.1789 92.0356 84.4975 92.0356 83.4754C92.0356 82.4532 92.7173 81.7719 93.7392 81.7719Z" fill="#6F707E"/>
<path d="M34.1141 45.9966V52.811C34.1141 53.8332 33.4328 54.5145 32.4106 54.5145C31.3884 54.5145 30.7071 53.8332 30.7071 52.811V45.9966C30.7071 44.9744 31.3884 44.2931 32.4106 44.2931C33.4328 44.2931 34.1141 44.9744 34.1141 45.9966Z" fill="#F26A56"/>
<path d="M80.1107 78.3645H83.5178C84.54 78.3645 85.2213 79.0459 85.2213 80.068C85.2213 81.0902 84.54 81.7716 83.5178 81.7716H80.1107C79.0886 81.7716 78.4072 81.0902 78.4072 80.068C78.4072 79.0462 79.0886 78.3645 80.1107 78.3645Z" fill="#6F707E"/>
<path d="M80.1107 85.1788H100.554C101.576 85.1788 102.257 85.8602 102.257 86.8824C102.257 87.9045 101.576 88.5859 100.554 88.5859H80.1107C79.0886 88.5859 78.4072 87.9045 78.4072 86.8824C78.4072 85.8602 79.0886 85.1788 80.1107 85.1788Z" fill="#494A52"/>
<path d="M69.5484 85.1788C65.1192 85.1788 61.3713 81.431 61.3713 77.0017C61.3713 75.9796 62.3935 74.9574 63.4157 74.9574C64.4379 74.9574 65.46 75.9796 65.46 77.0017C65.46 79.3866 67.1636 81.0904 69.5487 81.0904C70.5709 81.0904 71.5931 82.1126 71.5931 83.1348C71.5928 84.1567 70.5706 85.1788 69.5484 85.1788Z" fill="#F48476"/>
<path d="M61.3713 119.25V132.879C65.46 131.516 68.8671 128.79 71.5928 125.724V149.915C72.6149 149.915 73.9776 149.915 74.9998 149.915V119.25H61.3713Z" fill="#B0C4D9"/>
<path d="M61.3713 132.879C63.4157 126.405 68.5263 121.294 74.9998 119.25L68.5263 115.502C61.7119 111.414 55.5791 105.622 51.1499 98.8075L48.0834 99.8297C43.3133 101.533 39.5655 104.6 37.1806 109.029L61.3713 132.879Z" fill="#70B7E5"/>
<path d="M57.2826 121.976L47.0612 111.755C45.0169 109.71 42.632 108.688 39.9063 108.688C38.8841 108.688 37.8619 108.688 37.8619 109.37L61.7121 133.22C63.7565 126.746 68.8671 121.635 75.3406 119.591C72.2741 117.547 68.1857 118.228 65.46 120.613C65.1192 120.954 64.7787 121.295 64.4378 121.636C62.3935 123.68 58.9864 123.68 57.2826 121.976Z" fill="#4C9CD6"/>
</g>
<defs>
<clipPath id="clip0">
<rect width="150" height="150" fill="white"/>
</clipPath>
</defs>
</svg>
