<svg width="317" height="195" viewBox="0 0 317 195" fill="none" xmlns="http://www.w3.org/2000/svg">
<path d="M1.53125 68.625C1.53125 66.7708 1.88542 65.0312 2.59375 63.4062C3.30208 61.7812 4.26042 60.3646 5.46875 59.1562C6.69792 57.9271 8.125 56.9583 9.75 56.25C11.375 55.5417 13.1146 55.1875 14.9688 55.1875H35.5312V64.1562H14.9688C14.3438 64.1562 13.7604 64.2708 13.2188 64.5C12.6771 64.7292 12.1979 65.0521 11.7812 65.4688C11.3854 65.8646 11.0729 66.3333 10.8438 66.875C10.6146 67.4167 10.5 68 10.5 68.625C10.5 69.25 10.6146 69.8438 10.8438 70.4062C11.0729 70.9479 11.3854 71.4271 11.7812 71.8438C12.1979 72.2396 12.6771 72.5521 13.2188 72.7812C13.7604 73.0104 14.3438 73.125 14.9688 73.125H23.9375C25.7917 73.125 27.5312 73.4792 29.1562 74.1875C30.8021 74.875 32.2292 75.8333 33.4375 77.0625C34.6667 78.2708 35.625 79.6979 36.3125 81.3438C37.0208 82.9688 37.375 84.7083 37.375 86.5625C37.375 88.4167 37.0208 90.1562 36.3125 91.7812C35.625 93.4062 34.6667 94.8333 33.4375 96.0625C32.2292 97.2708 30.8021 98.2292 29.1562 98.9375C27.5312 99.6458 25.7917 100 23.9375 100H4.03125V91.0312H23.9375C24.5625 91.0312 25.1458 90.9167 25.6875 90.6875C26.2292 90.4583 26.6979 90.1458 27.0938 89.75C27.5104 89.3333 27.8333 88.8542 28.0625 88.3125C28.2917 87.7708 28.4062 87.1875 28.4062 86.5625C28.4062 85.9375 28.2917 85.3542 28.0625 84.8125C27.8333 84.2708 27.5104 83.8021 27.0938 83.4062C26.6979 82.9896 26.2292 82.6667 25.6875 82.4375C25.1458 82.2083 24.5625 82.0938 23.9375 82.0938H14.9688C13.1146 82.0938 11.375 81.7396 9.75 81.0312C8.125 80.3229 6.69792 79.3646 5.46875 78.1562C4.26042 76.9271 3.30208 75.5 2.59375 73.875C1.88542 72.2292 1.53125 70.4792 1.53125 68.625ZM61.4688 100H52.5312V64.1562H39.0625V55.1875H74.9062V64.1562H61.4688V100ZM88.625 64.1562V82.0938H97.5938C98.8229 82.0938 99.9792 81.8646 101.062 81.4062C102.146 80.9271 103.094 80.2812 103.906 79.4688C104.719 78.6562 105.354 77.7083 105.812 76.625C106.292 75.5208 106.531 74.3542 106.531 73.125C106.531 71.8958 106.292 70.7396 105.812 69.6562C105.354 68.5521 104.719 67.5938 103.906 66.7812C103.094 65.9688 102.146 65.3333 101.062 64.875C99.9792 64.3958 98.8229 64.1562 97.5938 64.1562H88.625ZM88.625 100H79.6562V55.1875H97.5938C99.2396 55.1875 100.823 55.4062 102.344 55.8438C103.865 56.2604 105.281 56.8646 106.594 57.6562C107.927 58.4271 109.135 59.3646 110.219 60.4688C111.323 61.5521 112.26 62.7604 113.031 64.0938C113.823 65.4271 114.427 66.8542 114.844 68.375C115.281 69.8958 115.5 71.4792 115.5 73.125C115.5 75.5833 115.031 77.9062 114.094 80.0938C113.156 82.2604 111.875 84.1562 110.25 85.7812C108.625 87.4062 106.719 88.6875 104.531 89.625C102.365 90.5625 100.052 91.0312 97.5938 91.0312H88.625V100Z" fill="white"/>
<path d="M35.5312 179H4.15625V134.188H13.125V170.031H35.5312V179ZM82.5625 156.781C82.5625 158.906 82.2812 160.958 81.7188 162.938C81.1771 164.896 80.4062 166.74 79.4062 168.469C78.4062 170.177 77.1979 171.74 75.7812 173.156C74.3646 174.573 72.8021 175.792 71.0938 176.812C69.3854 177.812 67.5417 178.583 65.5625 179.125C63.5833 179.688 61.5312 179.969 59.4062 179.969C57.2812 179.969 55.2292 179.688 53.25 179.125C51.2917 178.583 49.4479 177.812 47.7188 176.812C46.0104 175.792 44.4479 174.573 43.0312 173.156C41.6146 171.74 40.3958 170.177 39.375 168.469C38.375 166.74 37.5938 164.896 37.0312 162.938C36.4896 160.958 36.2188 158.906 36.2188 156.781C36.2188 154.656 36.4896 152.604 37.0312 150.625C37.5938 148.646 38.375 146.802 39.375 145.094C40.3958 143.385 41.6146 141.823 43.0312 140.406C44.4479 138.99 46.0104 137.781 47.7188 136.781C49.4479 135.781 51.2917 135.01 53.25 134.469C55.2292 133.906 57.2812 133.625 59.4062 133.625C61.5312 133.625 63.5833 133.906 65.5625 134.469C67.5417 135.01 69.3854 135.781 71.0938 136.781C72.8021 137.781 74.3646 138.99 75.7812 140.406C77.1979 141.823 78.4062 143.385 79.4062 145.094C80.4062 146.802 81.1771 148.646 81.7188 150.625C82.2812 152.604 82.5625 154.656 82.5625 156.781ZM73.6562 156.781C73.6562 154.823 73.2812 152.979 72.5312 151.25C71.7812 149.5 70.7604 147.99 69.4688 146.719C68.1979 145.427 66.6875 144.406 64.9375 143.656C63.2083 142.906 61.3646 142.531 59.4062 142.531C57.4271 142.531 55.5729 142.906 53.8438 143.656C52.1146 144.406 50.6042 145.427 49.3125 146.719C48.0208 147.99 47 149.5 46.25 151.25C45.5 152.979 45.125 154.823 45.125 156.781C45.125 158.74 45.5 160.583 46.25 162.312C47 164.021 48.0208 165.521 49.3125 166.812C50.6042 168.104 52.1146 169.125 53.8438 169.875C55.5729 170.625 57.4271 171 59.4062 171C61.3646 171 63.2083 170.625 64.9375 169.875C66.6875 169.125 68.1979 168.104 69.4688 166.812C70.7604 165.521 71.7812 164.021 72.5312 162.312C73.2812 160.583 73.6562 158.74 73.6562 156.781ZM124.125 174.469C122.042 176.24 119.719 177.604 117.156 178.562C114.594 179.5 111.927 179.969 109.156 179.969C107.031 179.969 104.979 179.688 103 179.125C101.042 178.583 99.2083 177.812 97.5 176.812C95.7917 175.792 94.2292 174.583 92.8125 173.188C91.3958 171.771 90.1875 170.208 89.1875 168.5C88.1875 166.771 87.4062 164.917 86.8438 162.938C86.3021 160.958 86.0312 158.906 86.0312 156.781C86.0312 154.656 86.3021 152.615 86.8438 150.656C87.4062 148.698 88.1875 146.865 89.1875 145.156C90.1875 143.427 91.3958 141.865 92.8125 140.469C94.2292 139.052 95.7917 137.844 97.5 136.844C99.2083 135.844 101.042 135.073 103 134.531C104.979 133.969 107.031 133.688 109.156 133.688C111.927 133.688 114.594 134.167 117.156 135.125C119.719 136.062 122.042 137.417 124.125 139.188L119.438 147C118.083 145.625 116.521 144.552 114.75 143.781C112.979 142.99 111.115 142.594 109.156 142.594C107.198 142.594 105.354 142.969 103.625 143.719C101.917 144.469 100.417 145.49 99.125 146.781C97.8333 148.052 96.8125 149.552 96.0625 151.281C95.3125 152.99 94.9375 154.823 94.9375 156.781C94.9375 158.76 95.3125 160.615 96.0625 162.344C96.8125 164.073 97.8333 165.583 99.125 166.875C100.417 168.167 101.917 169.188 103.625 169.938C105.354 170.688 107.198 171.062 109.156 171.062C110.281 171.062 111.375 170.927 112.438 170.656C113.5 170.385 114.51 170.01 115.469 169.531V156.781H124.125V174.469ZM140 179H131.031V134.188H140V179ZM145.719 147.625C145.719 145.771 146.073 144.031 146.781 142.406C147.49 140.781 148.448 139.365 149.656 138.156C150.885 136.927 152.312 135.958 153.938 135.25C155.562 134.542 157.302 134.188 159.156 134.188H179.719V143.156H159.156C158.531 143.156 157.948 143.271 157.406 143.5C156.865 143.729 156.385 144.052 155.969 144.469C155.573 144.865 155.26 145.333 155.031 145.875C154.802 146.417 154.688 147 154.688 147.625C154.688 148.25 154.802 148.844 155.031 149.406C155.26 149.948 155.573 150.427 155.969 150.844C156.385 151.24 156.865 151.552 157.406 151.781C157.948 152.01 158.531 152.125 159.156 152.125H168.125C169.979 152.125 171.719 152.479 173.344 153.188C174.99 153.875 176.417 154.833 177.625 156.062C178.854 157.271 179.812 158.698 180.5 160.344C181.208 161.969 181.562 163.708 181.562 165.562C181.562 167.417 181.208 169.156 180.5 170.781C179.812 172.406 178.854 173.833 177.625 175.062C176.417 176.271 174.99 177.229 173.344 177.938C171.719 178.646 169.979 179 168.125 179H148.219V170.031H168.125C168.75 170.031 169.333 169.917 169.875 169.688C170.417 169.458 170.885 169.146 171.281 168.75C171.698 168.333 172.021 167.854 172.25 167.312C172.479 166.771 172.594 166.188 172.594 165.562C172.594 164.938 172.479 164.354 172.25 163.812C172.021 163.271 171.698 162.802 171.281 162.406C170.885 161.99 170.417 161.667 169.875 161.438C169.333 161.208 168.75 161.094 168.125 161.094H159.156C157.302 161.094 155.562 160.74 153.938 160.031C152.312 159.323 150.885 158.365 149.656 157.156C148.448 155.927 147.49 154.5 146.781 152.875C146.073 151.229 145.719 149.479 145.719 147.625ZM205.656 179H196.719V143.156H183.25V134.188H219.094V143.156H205.656V179ZM232.812 179H223.844V134.188H232.812V179ZM276.938 174.406C274.854 176.198 272.521 177.573 269.938 178.531C267.354 179.49 264.677 179.969 261.906 179.969C259.781 179.969 257.729 179.688 255.75 179.125C253.792 178.583 251.948 177.812 250.219 176.812C248.51 175.792 246.948 174.573 245.531 173.156C244.115 171.74 242.896 170.177 241.875 168.469C240.875 166.74 240.094 164.896 239.531 162.938C238.99 160.958 238.719 158.906 238.719 156.781C238.719 154.656 238.99 152.604 239.531 150.625C240.094 148.646 240.875 146.802 241.875 145.094C242.896 143.365 244.115 141.792 245.531 140.375C246.948 138.958 248.51 137.75 250.219 136.75C251.948 135.729 253.792 134.948 255.75 134.406C257.729 133.844 259.781 133.562 261.906 133.562C264.677 133.562 267.354 134.042 269.938 135C272.521 135.938 274.854 137.312 276.938 139.125L272.188 146.938C270.875 145.521 269.323 144.438 267.531 143.688C265.74 142.917 263.865 142.531 261.906 142.531C259.927 142.531 258.073 142.906 256.344 143.656C254.615 144.406 253.104 145.427 251.812 146.719C250.521 147.99 249.5 149.5 248.75 151.25C248 152.979 247.625 154.823 247.625 156.781C247.625 158.74 248 160.583 248.75 162.312C249.5 164.021 250.521 165.521 251.812 166.812C253.104 168.104 254.615 169.125 256.344 169.875C258.073 170.625 259.927 171 261.906 171C263.865 171 265.74 170.625 267.531 169.875C269.323 169.104 270.875 168.01 272.188 166.594L276.938 174.406ZM278.969 147.625C278.969 145.771 279.323 144.031 280.031 142.406C280.74 140.781 281.698 139.365 282.906 138.156C284.135 136.927 285.562 135.958 287.188 135.25C288.812 134.542 290.552 134.188 292.406 134.188H312.969V143.156H292.406C291.781 143.156 291.198 143.271 290.656 143.5C290.115 143.729 289.635 144.052 289.219 144.469C288.823 144.865 288.51 145.333 288.281 145.875C288.052 146.417 287.938 147 287.938 147.625C287.938 148.25 288.052 148.844 288.281 149.406C288.51 149.948 288.823 150.427 289.219 150.844C289.635 151.24 290.115 151.552 290.656 151.781C291.198 152.01 291.781 152.125 292.406 152.125H301.375C303.229 152.125 304.969 152.479 306.594 153.188C308.24 153.875 309.667 154.833 310.875 156.062C312.104 157.271 313.062 158.698 313.75 160.344C314.458 161.969 314.812 163.708 314.812 165.562C314.812 167.417 314.458 169.156 313.75 170.781C313.062 172.406 312.104 173.833 310.875 175.062C309.667 176.271 308.24 177.229 306.594 177.938C304.969 178.646 303.229 179 301.375 179H281.469V170.031H301.375C302 170.031 302.583 169.917 303.125 169.688C303.667 169.458 304.135 169.146 304.531 168.75C304.948 168.333 305.271 167.854 305.5 167.312C305.729 166.771 305.844 166.188 305.844 165.562C305.844 164.938 305.729 164.354 305.5 163.812C305.271 163.271 304.948 162.802 304.531 162.406C304.135 161.99 303.667 161.667 303.125 161.438C302.583 161.208 302 161.094 301.375 161.094H292.406C290.552 161.094 288.812 160.74 287.188 160.031C285.562 159.323 284.135 158.365 282.906 157.156C281.698 155.927 280.74 154.5 280.031 152.875C279.323 151.229 278.969 149.479 278.969 147.625Z" fill="#FFD336"/>
<g clip-path="url(#clip0)">
<path d="M156.364 78.3386C158.314 78.3386 160.048 80.0698 160.048 82.0175V82.2339C160.048 84.1815 158.314 85.9128 156.364 85.9128H144.226H139.674C137.724 85.9128 135.99 87.644 135.99 89.5917V89.8081C135.99 91.7557 137.724 93.487 139.674 93.487H147.044H197.545C223.771 66.0035 232.224 31.5951 215.968 13.4171C215.318 12.5515 214.451 11.9023 213.584 11.0367H199.279H185.407H152.679C150.728 11.0367 148.994 12.7679 148.994 14.7156V14.932C148.994 16.8796 150.728 18.6109 152.679 18.6109H179.555H189.742C191.693 18.6109 193.427 20.3421 193.427 22.2897V22.5061C193.427 24.4538 191.693 26.185 189.742 26.185H178.038H159.615C157.664 26.185 155.93 27.9163 155.93 29.8639V30.0803C155.93 32.028 157.664 33.7592 159.615 33.7592H176.521H204.264C206.214 33.7592 207.948 35.4904 207.948 37.4381V37.6545C207.948 39.6021 206.214 41.3334 204.264 41.3334H174.787H126.453C124.502 41.3334 122.768 43.0646 122.768 45.0122V45.2287C122.768 47.1763 124.502 48.9075 126.453 48.9075H153.546H158.314C160.265 48.9075 161.999 50.6388 161.999 52.5864V52.8028C161.999 54.7505 160.265 56.4817 158.314 56.4817H153.546H142.925C140.975 56.4817 139.241 58.2129 139.241 60.1606V60.377C139.241 62.3246 140.975 64.0559 142.925 64.0559H170.018H176.521C178.471 64.0559 180.205 65.7871 180.205 67.7348V67.0855C180.205 69.0332 178.471 70.7644 176.521 70.7644H168.284H121.685C119.734 70.7644 118 72.4957 118 74.4433V74.6597C118 76.6074 119.734 78.3386 121.685 78.3386H122.118H145.96H156.364V78.3386ZM200.796 25.9686C198.628 25.9686 197.111 24.2374 197.111 22.2897C197.111 20.1257 198.845 18.6109 200.796 18.6109C202.963 18.6109 204.481 20.3421 204.481 22.2897C204.481 24.2374 202.963 25.9686 200.796 25.9686ZM192.776 67.0855C192.776 69.2496 191.042 70.7644 189.092 70.7644C186.924 70.7644 185.407 69.0332 185.407 67.0855C185.407 64.9215 187.141 63.4067 189.092 63.4067C191.259 63.1903 192.776 64.9215 192.776 67.0855ZM171.102 55.8325C169.151 55.8325 167.417 54.1013 167.417 52.1536V51.9372C167.417 49.9896 169.151 48.2583 171.102 48.2583H183.023C184.974 48.2583 186.708 49.9896 186.708 51.9372V52.1536C186.708 54.1013 184.974 55.8325 183.023 55.8325H171.102Z" fill="url(#paint0_linear)"/>
<path d="M252.597 73.1449H239.159L251.514 15.1483C251.947 12.7679 250.43 10.8203 248.046 10.8203H223.987C224.854 11.4695 225.505 12.3351 226.372 13.2007C242.627 31.3787 234.174 65.7871 207.948 93.2705H248.479C250.864 93.2705 253.248 91.3229 253.681 88.9424L256.065 77.473C256.499 75.0925 254.982 73.1449 252.597 73.1449Z" fill="url(#paint1_linear)"/>
<path d="M304.616 78.3386H303.749L306.133 67.3019C306.567 64.9215 306.133 61.2426 304.833 59.0785L289.227 31.1623C288.143 28.9983 285.109 27.267 282.725 27.267H253.248C250.864 27.267 248.479 29.2147 248.046 31.5951L235.908 88.726C235.475 91.1065 236.992 93.0541 239.376 93.0541H296.38C296.596 93.0541 296.596 93.0541 296.813 93.0541C297.03 93.0541 297.03 93.0541 297.247 93.0541H301.798C303.315 93.0541 305.049 91.7557 305.266 90.2409L307.217 81.1518C307.433 79.637 306.35 78.3386 304.616 78.3386Z" fill="url(#paint2_linear)"/>
<path d="M295.513 58.2129C295.296 59.2949 293.779 60.377 292.045 60.377H255.632C254.115 60.377 253.031 59.0785 253.248 57.5637L257.799 36.1396C258.233 34.6248 259.75 33.3264 261.267 33.3264H280.124C281.641 33.3264 283.592 34.4084 284.459 35.9232L294.429 53.6684C295.296 54.9668 295.729 57.1309 295.513 58.2129Z" fill="white"/>
<path d="M282.508 93.2705C280.774 101.278 272.971 107.77 264.735 107.77C256.716 107.77 251.514 101.278 253.248 93.2705C254.982 85.2636 262.784 78.7714 271.021 78.7714C279.04 78.7714 284.025 85.2636 282.508 93.2705Z" fill="url(#paint3_linear)"/>
<path d="M273.838 93.2705C273.188 96.5166 269.937 99.3298 266.469 99.3298C263.218 99.3298 261.05 96.5166 261.701 93.2705C262.351 90.0244 265.602 87.2112 269.07 87.2112C272.538 87.2112 274.489 89.808 273.838 93.2705Z" fill="white"/>
<path d="M191.909 93.2705C190.175 101.278 182.373 107.77 174.136 107.77C166.117 107.77 160.915 101.278 162.649 93.2705C164.383 85.2636 172.186 78.7714 180.422 78.7714C188.442 78.7714 193.643 85.2636 191.909 93.2705Z" fill="url(#paint4_linear)"/>
<path d="M183.456 93.2705C182.806 96.5166 179.555 99.3298 176.087 99.3298C172.836 99.3298 170.669 96.5166 171.319 93.2705C171.969 90.0244 175.22 87.2112 178.688 87.2112C182.156 87.2112 184.107 89.808 183.456 93.2705Z" fill="white"/>
<path d="M208.382 97.3822C187.358 116.209 162.432 125.731 142.925 123.784C160.265 122.269 180.422 112.963 197.978 97.3822C229.406 69.2496 240.46 30.5131 222.904 11.0366C217.268 4.76091 209.032 1.08202 199.712 0.216405C213.367 -1.08202 225.505 2.38045 233.091 11.0366C251.08 30.5131 239.81 69.0332 208.382 97.3822Z" fill="url(#paint5_linear)"/>
</g>
<defs>
<linearGradient id="paint0_linear" x1="255.632" y1="52.072" x2="114.021" y2="52.072" gradientUnits="userSpaceOnUse">
<stop offset="0.1241" stop-color="#FE0600"/>
<stop offset="0.8621" stop-color="#FFB904"/>
</linearGradient>
<linearGradient id="paint1_linear" x1="208.788" y1="60.3001" x2="326.951" y2="25.1659" gradientUnits="userSpaceOnUse">
<stop stop-color="#F2002C"/>
<stop offset="1" stop-color="#3F7AFF"/>
</linearGradient>
<linearGradient id="paint2_linear" x1="214.348" y1="78.9988" x2="332.511" y2="43.8646" gradientUnits="userSpaceOnUse">
<stop stop-color="#EE4A17"/>
<stop offset="1" stop-color="#D238A7"/>
<stop offset="1" stop-color="#FFD53F"/>
</linearGradient>
<linearGradient id="paint3_linear" x1="222.566" y1="106.637" x2="340.729" y2="71.5021" gradientUnits="userSpaceOnUse">
<stop stop-color="#9700F2"/>
<stop offset="1" stop-color="#3F7AFF"/>
</linearGradient>
<linearGradient id="paint4_linear" x1="255.632" y1="93.2225" x2="114.021" y2="93.2225" gradientUnits="userSpaceOnUse">
<stop offset="0.1241" stop-color="#FE0600"/>
<stop offset="0.8621" stop-color="#FFB904"/>
</linearGradient>
<linearGradient id="paint5_linear" x1="206.85" y1="53.779" x2="325.012" y2="18.6449" gradientUnits="userSpaceOnUse">
<stop stop-color="#F25700"/>
<stop offset="1" stop-color="#FFF73F"/>
</linearGradient>
<clipPath id="clip0">
<rect width="189" height="124" fill="white" transform="translate(118)"/>
</clipPath>
</defs>
</svg>
